<?xml version="1.0" encoding="UTF-8"?><!DOCTYPE svg PUBLIC "-//W3C//DTD SVG 1.1//EN" "http://www.w3.org/Graphics/SVG/1.1/DTD/svg11.dtd"><svg xmlns="http://www.w3.org/2000/svg" xmlns:xlink="http://www.w3.org/1999/xlink"><defs><style>.cls-1{fill:#231f20;}</style><style>.cls-1{fill:#231f20;}</style><style>.cls-1{fill:#231f20;}</style><style>.cls-1{fill:#231f20;}</style><style>.cls-1{fill:#231f20;}</style><style>.cls-1{fill:#231f20;}</style><style>.cls-1{fill:#231f20;}</style><style>.cls-1{fill:#231f20;}</style><style>.cls-1{fill:#231f20;}</style><style>.cls-1{fill:#231f20;}</style><style>.cls-1{fill:#231f20;}</style><style>.cls-1{fill:#231f20;}</style><style>.cls-1{fill:#231f20;}</style>
		<rect id="SVGID_1_" y="0" width="756.3" height="85.5"/>
	</defs><symbol id="arrow-right" viewBox="0 0 94.3 36.7">
<rect y="17.4" width="91" height="2"/>
<path d="M74.4,36.7L72.6,36c3-7.5,9.8-13.9,18.7-17.6C82.3,14.6,75.6,8.3,72.6,0.7L74.4,0c3.1,7.7,10.3,14,19.9,17.4v1.9
	C84.8,22.7,77.5,29.1,74.4,36.7z"/>
</symbol><symbol id="arrow-section" viewBox="0 0 500 1000">
<style type="text/css">
	.st0{fill:none;stroke:#000000;stroke-miterlimit:10;}
</style>
<g>
	<line class="st0" x1="-0.5" y1="-0.5" x2="-0.5" y2="1000.5"/>
</g>
<line class="st0" x1="499.5" y1="499.5" x2="-0.5" y2="1000.5"/>
<line class="st0" x1="-0.5" y1="-0.5" x2="499.5" y2="499.5"/>
</symbol><symbol id="facebook" viewBox="0 0 14.6 31.4">
<path d="M14.6,10.2h-5V6.9c0-1.2,0.8-1.5,1.4-1.5c0.6,0,3.5,0,3.5,0V0L9.7,0C4.3,0,3.1,4,3.1,6.6v3.6H0v5.5h3.1c0,7.1,0,15.7,0,15.7
	h6.5c0,0,0-8.7,0-15.7H14L14.6,10.2z"/>
</symbol><symbol id="instagram" viewBox="0 0 27.9 27.9">
<path d="M22.5,0H5.4C2.4,0,0,2.4,0,5.4v5.7v11.4c0,3,2.4,5.4,5.4,5.4h17.1c3,0,5.4-2.4,5.4-5.4V11.1V5.4C27.9,2.4,25.5,0,22.5,0z
	 M24.1,3.2l0.6,0v0.6v4.1L20,8l0-4.7L24.1,3.2z M10,11.1c0.9-1.2,2.3-2,4-2s3.1,0.8,4,2c0.6,0.8,0.9,1.8,0.9,2.9
	c0,2.7-2.2,4.9-4.9,4.9S9,16.7,9,13.9C9,12.9,9.4,11.9,10,11.1z M25.2,22.5c0,1.5-1.2,2.7-2.7,2.7H5.4c-1.5,0-2.7-1.2-2.7-2.7V11.1
	h4.2c-0.4,0.9-0.6,1.9-0.6,2.9c0,4.2,3.4,7.6,7.6,7.6c4.2,0,7.6-3.4,7.6-7.6c0-1-0.2-2-0.6-2.9h4.2V22.5z"/>
</symbol><symbol id="linkedin" viewBox="0 0 26.9 24.7">
<path d="M5.9,24.7H0.7V7.9h5.2V24.7z M3.2,5.8L3.2,5.8C1.2,5.8,0,4.5,0,2.9C0,1.3,1.3,0,3.2,0c1.9,0,3.1,1.3,3.2,2.9
	C6.4,4.5,5.1,5.8,3.2,5.8z M26.9,24.7h-5.9V16c0-2.3-0.9-3.8-3-3.8c-1.6,0-2.4,1-2.8,2.1C15,14.6,15,15.1,15,15.6v9.1H9.1
	c0,0,0.1-15.4,0-16.8H15v2.6c0.3-1.2,2.2-2.8,5.2-2.8c3.7,0,6.6,2.4,6.6,7.6V24.7z"/>
</symbol><symbol id="logo-ca-right" viewBox="0 0 400 400"><title>logos</title><g id="Layer_2" data-name="Layer 2"><path class="cls-1" d="M278.87,363.5a8.7,8.7,0,1,1-8.58,8.69,8.56,8.56,0,0,1,8.58-8.69"/><path class="cls-1" d="M342,338.09c0,3.45-2.34,5.13-5.8,5.13-5.35,0-6.57-4.69-7.8-7.81-1.34-3.68-3-5.23-7.13-5.23-7.58,0-10.48,9.47-10.48,24.18,0,13,2,23.52,14.38,23.52,5.12,0,16.79-3.12,19.46-14.27l2.12.67C343.5,376.32,332.17,381,321,381a26.87,26.87,0,0,1-27.08-26.64c0-13.71,10.59-26.64,27.64-26.64,14.71,0,20.4,5.35,20.4,10.37"/><path class="cls-1" d="M374,369.41l.23-23.74c-1,1.78-3.24,3.45-6.25,5.57-5.23,3.46-8.69,5.24-8.69,14.38,0,5.79,1.78,10.25,7.24,10.25,3.57,0,6.25-3.79,7.47-6.46m.45-32.55c0-5.35-1.78-6.91-6.13-6.91-5.46,0-6.47,3.46-8,6.58s-2.78,5.13-7.13,5.13c-2.56,0-5.13-1.23-5.13-4.8,0-7.47,12.15-9.14,20.18-9.14,5.24,0,9.36.45,12.81,1.67,4.46,1.45,9.59,4.69,9.59,11.6l-.33,30.87c0,3.12.44,4.9,3.12,4.9a7.78,7.78,0,0,0,4.68-1.33l.89,1.44A19.5,19.5,0,0,1,386.85,381c-8.47,0-11.48-3.23-12.26-8.47h-.33c-2.68,5.24-8.25,8.47-15.94,8.47-8.92,0-14.27-5.35-14.27-12.93,0-9.36,6.13-12.15,13-14.6,7.47-2.68,15.38-5.91,17.17-11.81Z"/></g></symbol><symbol id="logo-ca" viewBox="0 0 400 400"><title>logos</title><g id="Layer_2" data-name="Layer 2"><path class="cls-1" d="M137.23,208.1a8.7,8.7,0,1,1-8.59,8.69,8.56,8.56,0,0,1,8.59-8.69"/><path class="cls-1" d="M200.33,182.69c0,3.45-2.34,5.12-5.79,5.12-5.35,0-6.58-4.68-7.8-7.8-1.34-3.68-3-5.24-7.14-5.24-7.58,0-10.47,9.48-10.47,24.19,0,13,2,23.52,14.37,23.52,5.13,0,16.79-3.12,19.47-14.27l2.11.67c-3.23,12-14.56,16.72-25.7,16.72A26.87,26.87,0,0,1,152.3,199c0-13.71,10.58-26.64,27.64-26.64,14.71,0,20.39,5.35,20.39,10.37"/><path class="cls-1" d="M232.39,214l.22-23.74c-1,1.78-3.23,3.45-6.24,5.57-5.24,3.45-8.69,5.24-8.69,14.38,0,5.79,1.78,10.25,7.24,10.25,3.57,0,6.24-3.79,7.47-6.46m.45-32.55c0-5.35-1.79-6.91-6.13-6.91-5.47,0-6.47,3.45-8,6.58s-2.79,5.12-7.13,5.12c-2.57,0-5.13-1.22-5.13-4.79,0-7.47,12.15-9.14,20.17-9.14,5.24,0,9.37.45,12.82,1.67,4.46,1.45,9.59,4.68,9.59,11.59l-.34,30.88c0,3.12.45,4.9,3.12,4.9a7.68,7.68,0,0,0,4.68-1.34l.9,1.45a19.5,19.5,0,0,1-12.15,4.13c-8.47,0-11.48-3.24-12.26-8.47h-.34c-2.67,5.23-8.25,8.47-15.94,8.47-8.91,0-14.26-5.35-14.26-12.93,0-9.36,6.13-12.15,13-14.6,7.46-2.68,15.38-5.91,17.16-11.82Z"/></g></symbol><symbol id="logo-colette-right" viewBox="0 0 400 400"><title>logos</title><g id="Layer_2" data-name="Layer 2"><path class="cls-1" d="M174.71,354.9c-1.55-2.5-4.86-7.69-13.69-7.69-7.29,0-14.78,4.18-14.78,14.5,0,7.76,6.61,13.63,15.25,13.63,5.73,0,10.66-1.68,14.37-8.09l4.72,2.63c-3.1,5.4-8.23,10.12-19.23,10.12-12.68,0-20.58-8.23-20.58-18.83,0-12.14,9.31-18.62,20.25-18.62,10.66,0,15.72,5.06,18.42,9.65Z"/><path class="cls-1" d="M222.35,361.31c0-6.41-4.18-14.1-14.85-14.1s-14.91,7.69-14.91,14.1c0,8.43,5.67,14,14.91,14s14.85-5.6,14.85-14m-35.22-.68c0-10.05,8-18.08,20.37-18.08s20.32,8,20.32,18.08c0,12.49-8.3,19.37-20.32,19.37s-20.37-6.88-20.37-19.37"/><rect class="cls-1" x="236.11" y="329.87" width="5.47" height="49.05"/><path class="cls-1" d="M284.09,357.73c-1.08-5.8-6.08-10.52-14.44-10.52-8,0-12.55,4.05-14.1,10.52ZM289,371.57c-3.64,3.84-7.15,8.43-19.16,8.43s-20-8.1-20-18.89c0-11.2,8.43-18.56,19.3-18.56,11.26,0,21.12,5.87,20.85,19.84H255.34c.54,6.61,5.87,12.95,15,12.95s12.15-4.11,14.37-6.88Z"/><path class="cls-1" d="M321.87,348.29h-14v21.32c0,3.85,1.68,5.73,7.22,5.73a37.37,37.37,0,0,0,7.76-1.07V379a63.17,63.17,0,0,1-8.91,1c-11.54,0-11.54-7-11.54-9.85V348.29h-7.49v-4.66h7.49V331.89h5.47v11.74h14Z"/><path class="cls-1" d="M353.18,348.29h-14v21.32c0,3.85,1.68,5.73,7.22,5.73a37.37,37.37,0,0,0,7.76-1.07V379a63.17,63.17,0,0,1-8.91,1c-11.54,0-11.54-7-11.54-9.85V348.29h-7.49v-4.66h7.49V331.89h5.47v11.74h14Z"/><path class="cls-1" d="M393.06,357.73c-1.08-5.8-6.08-10.52-14.44-10.52-8,0-12.55,4.05-14.11,10.52ZM398,371.57c-3.64,3.84-7.15,8.43-19.16,8.43s-20-8.1-20-18.89c0-11.2,8.43-18.56,19.29-18.56,11.27,0,21.12,5.87,20.85,19.84H364.31c.54,6.61,5.87,12.95,15.05,12.95s12.15-4.11,14.37-6.88Z"/></g></symbol><symbol id="logo-colette" viewBox="0 0 400 400"><title>logos</title><g id="Layer_2" data-name="Layer 2"><path class="cls-1" d="M104.83,194.35c-1.56-2.5-4.86-7.69-13.7-7.69-7.29,0-14.78,4.18-14.78,14.51,0,7.76,6.61,13.63,15.25,13.63,5.74,0,10.66-1.69,14.37-8.1l4.73,2.63c-3.11,5.4-8.24,10.12-19.23,10.12-12.69,0-20.58-8.23-20.58-18.82,0-12.15,9.31-18.63,20.24-18.63,10.66,0,15.72,5.06,18.42,9.65Z"/><path class="cls-1" d="M152.46,200.76c0-6.41-4.18-14.1-14.84-14.1s-14.91,7.69-14.91,14.1c0,8.43,5.66,14,14.91,14s14.84-5.6,14.84-14m-35.22-.67c0-10.06,8-18.09,20.38-18.09s20.31,8,20.31,18.09c0,12.48-8.3,19.36-20.31,19.36s-20.38-6.88-20.38-19.36"/><rect class="cls-1" x="166.23" y="169.32" width="5.47" height="49.05"/><path class="cls-1" d="M214.2,197.18c-1.08-5.8-6.07-10.52-14.44-10.52-8,0-12.55,4.05-14.1,10.52ZM219.13,211c-3.65,3.84-7.16,8.43-19.17,8.43s-20-8.1-20-18.89c0-11.2,8.44-18.56,19.3-18.56,11.27,0,21.12,5.87,20.85,19.84H185.46c.54,6.61,5.87,12.95,15,12.95s12.15-4.11,14.38-6.88Z"/><path class="cls-1" d="M252,187.74H238v21.32c0,3.85,1.69,5.73,7.22,5.73a37.37,37.37,0,0,0,7.76-1.07v4.72a63,63,0,0,1-8.91,1c-11.53,0-11.53-7-11.53-9.85V187.74H225v-4.66h7.49V171.34H238v11.74h14Z"/><path class="cls-1" d="M283.29,187.74h-14v21.32c0,3.85,1.69,5.73,7.22,5.73a37.37,37.37,0,0,0,7.76-1.07v4.72a63.17,63.17,0,0,1-8.91,1c-11.54,0-11.54-7-11.54-9.85V187.74H256.3v-4.66h7.49V171.34h5.47v11.74h14Z"/><path class="cls-1" d="M323.17,197.18c-1.08-5.8-6.07-10.52-14.44-10.52-8,0-12.55,4.05-14.1,10.52ZM328.1,211c-3.65,3.84-7.16,8.43-19.17,8.43s-20-8.1-20-18.89c0-11.2,8.43-18.56,19.3-18.56,11.27,0,21.12,5.87,20.85,19.84H294.43c.54,6.61,5.87,12.95,15,12.95s12.15-4.11,14.37-6.88Z"/></g></symbol><symbol id="logo-flou-right" viewBox="0 0 400 400"><title>logos</title><g id="Layer_2" data-name="Layer 2"><path class="cls-1" d="M378.56,385.76l20.44,0L394.2,381V345.18l-22.55-22.33v35.56L374,363.3H356.34v-4.89H356s-3.3,6-13.27,6c-.45,0-10.47.27-12.57-6.06-.3-.9-.92-3.65-.69-9.54v-8.89l-8.69-8.57.74,1.47c.45.9,3.88,8.34,1.46,16.32,0,0-3.75,16-24,16.45-1.29,0-16.24.19-22.87-12.76a23.42,23.42,0,0,1-.45-18.33c.43-1,3.88-7.89,11-10.62.5-.19.64-.41.05-1s-17.88-17.42-17.88-17.42v53.35l2.46,4.48h-19.7l2.33-4.48V312.63L247,305.79V316.1s-2-2.28-4.43-2.28H231.49v14.36h12.07V338a5.31,5.31,0,0,0-3.75-1.92h-8.32v22.71l2.38,4.48H209.54s-.35-.26.32.44c.91,1,22.27,22,22.27,22h26.48l-4.12-4.51V369.53l16.7,16.23h24.19l-4.49-4.56V369.58L301.73,380a22.43,22.43,0,0,0,5.26,4.16A32,32,0,0,0,322,388c2.12.06,14.86,0,20.9-11.53.27-.51,1.51-3.42,1.51-3.42l11.34,10.76s1.24.91,2.34,1.6,3.74,1.87,8.18,1.87a16.94,16.94,0,0,0,9.05-3l1-.73Z"/><path class="cls-1" d="M289.13,343.38s-.41-13.76,10.16-13.76c9.37,0,9.37,13.76,9.37,13.76S309,357,299.24,357c-10.11-.05-10.11-13.57-10.11-13.57"/><path class="cls-1" d="M356.21,334.34l-11.44-11.42v27.73s-.2,5.83,5.45,5.83a5.78,5.78,0,0,0,6-6.16Z"/></g></symbol><symbol id="logo-flou" viewBox="0 0 400 400"><title>logos</title><g id="Layer_2" data-name="Layer 2"><path class="cls-1" d="M274.34,238.35l20.44,0-4.8-4.72V197.78l-22.55-22.34V211l2.33,4.9H252.11V211h-.32s-3.29,6-13.26,6c-.46,0-10.47.28-12.58-6.06-.29-.9-.91-3.65-.68-9.53v-8.89l-8.69-8.57s.27.55.73,1.46,3.89,8.34,1.47,16.32c0,0-3.76,16-24,16.46-1.3,0-16.24.18-22.87-12.77a23.37,23.37,0,0,1-.45-18.33c.43-1,3.88-7.88,11-10.62.5-.19.64-.41,0-1s-17.88-17.41-17.88-17.41v53.34l2.47,4.49H147.34l2.33-4.49V165.23l-6.9-6.84v10.3s-2-2.28-4.44-2.28H127.27v14.36h12.07v9.85a5.31,5.31,0,0,0-3.75-1.92h-8.32v22.71l2.37,4.49H105.32s-.36-.27.32.44c.91.95,22.27,22,22.27,22h26.47l-4.11-4.51V222.12L167,238.35h24.19l-4.48-4.56V222.17l10.84,10.44a22.54,22.54,0,0,0,5.26,4.15,32,32,0,0,0,15,3.83c2.12,0,14.86,0,20.9-11.54.26-.5,1.51-3.42,1.51-3.42l11.34,10.76s1.23.91,2.33,1.6a15.75,15.75,0,0,0,8.19,1.87,16.89,16.89,0,0,0,9-3l1-.72Z"/><path class="cls-1" d="M184.91,196s-.42-13.76,10.15-13.76c9.38,0,9.38,13.76,9.38,13.76s.36,13.61-9.42,13.57c-10.11,0-10.11-13.57-10.11-13.57"/><path class="cls-1" d="M252,186.93l-11.44-11.41v27.72s-.2,5.83,5.45,5.83a5.78,5.78,0,0,0,6-6.16Z"/></g></symbol><symbol id="logo-jardin-de-ville-right" viewBox="0 0 400 400"><title>logos</title><g id="Layer_2" data-name="Layer 2"><path class="cls-1" d="M59.26,339.87H54.67v31c0,5-.42,7.4-5.3,7.4H48.2l.84,4.27c.47,0,.85.09,1.41.09,6.42,0,8.81-4.45,8.81-10.4Zm20.53-.19H76.55L62.82,371.83h4.69l4-9.42H85.13l4.27,9.42h4.68Zm-1.69,7,5.16,11.58H73.32Zm19.59-6.84v32h4.59V358h1.92c2.35,0,4.27.75,8.49,7.31l4.22,6.56h5.48c-2.2-3.05-3-4.13-4.36-6.33-2.44-4-4.22-6.93-7.12-8.85a8,8,0,0,0,5.34-7.83c0-5.53-4-8.95-10.5-8.95Zm4.59,3.93h3c4.46,0,6.24,1.83,6.29,4.83,0,2.67-1.36,5.2-6.29,5.2h-3Zm23.67,28h12.47c10.54,0,17-7.78,17-16,0-7.55-5.2-16-17-16H126ZM130.54,344h7.08c8.95,0,13,5.44,13,11.86,0,3.93-2.39,11.85-12.8,11.85h-7.31Zm35.15-4.12H161.1v32h4.59Zm36.65,0H198v24.74l-21.65-24.74h-3.66v32H177v-24.6l21.38,24.6h3.93Zm22,32h12.47c10.55,0,17-7.78,17-16,0-7.55-5.21-16-17-16H224.32Zm4.6-27.84H236c9,0,13,5.44,13,11.86,0,3.93-2.39,11.85-12.79,11.85h-7.31Zm48.64-4.12H259.43v32H278V367.7H264v-9.93H277.1v-4.12H264V344h13.54Zm41.72,0h-4.55l-9.56,22.45-9.6-22.45H291l13.83,32.24h.94Zm8.15,0h-4.59v32h4.59Zm11.63,0h-4.59v32h19V367.7H339.06Zm23,0h-4.59v32h19V367.7H362Zm36.56,0H380.44v32H399V367.7H385v-9.93h13.08v-4.12H385V344h13.55Z"/><path class="cls-1" d="M348.37,399.94h1.49V385.48h-2l-4.11,4.17,1.05,1,3.56-3.67Zm11.26-5.44h1.71c2.13,0,3-.37,3.6-1.29v1.85c0,2.76-.83,3.44-3.68,3.44h-1.54c-2.55,0-3.38-.87-3.42-2.5h-1.5c0,2.77,1.73,4,4.87,4h1.75c3.29,0,5-1,5-4.77v-5.54c0-3-1.85-4.27-5.12-4.27h-1.88c-3.14,0-4.78,1.31-4.78,4.23v1c0,2.71,1.6,3.85,4.95,3.85m1.54-7.56c3,0,3.77.92,3.77,2.75v.9c0,1.2-.41,2.43-3.81,2.43h-1.41c-2.34,0-3.55-.58-3.55-2.52v-.73c0-1.79.75-2.83,3.34-2.83Zm16.44,13c3.71,0,4.83-1.33,4.83-4.67v-.85c0-3-1.5-4.48-4.87-4.48H376c-2.24,0-2.73.42-3.1,1V387H382v-1.5H371.4v6.92h1.52c.29-.79,1.17-1,3-1h1.69c2.64,0,3.35,1,3.35,3.12v.71c0,2.23-.64,3.17-3.35,3.17h-1.75c-2.21,0-3.13-.83-3.17-2.61h-1.5c0,2.8,1.73,4.11,4.67,4.11Zm16.75-9h-2.23c-1.88,0-2.63.33-3.4,1.29v-2.41c0-2.3.81-2.88,3.48-2.88h1.46c3,0,3.67.88,3.71,2.5h1.52c0-2.79-1.75-4-5.15-4H392c-3.08,0-4.81,1-4.81,4.31V396c0,2.9,1.85,4,4.5,4h2.86c2.77,0,4.41-1.29,4.41-4.31,0-3.61-1.52-4.75-4.64-4.75m-2.15,7.56c-2.71,0-3.48-.81-3.48-2.58v-.73c0-1.67.73-2.75,3.35-2.75h2.05c2.52,0,3.37.92,3.37,2.67v.75c0,1.62-.75,2.64-3.37,2.64Z"/></g></symbol><symbol id="logo-jardin-de-ville" viewBox="0 0 400 400"><title>logos</title><g id="Layer_2" data-name="Layer 2"><path class="cls-1" d="M35.66,176.87H31.07v31c0,5-.42,7.4-5.3,7.4H24.6l.84,4.27c.47,0,.85.09,1.41.09,6.42,0,8.81-4.45,8.81-10.4Zm20.53-.19H53L39.22,208.83h4.69l4-9.42H61.53l4.27,9.42h4.68Zm-1.69,7,5.16,11.58H49.72Zm19.59-6.84v32h4.59V195h1.93c2.34,0,4.26.75,8.48,7.31l4.22,6.56h5.48c-2.2-3.05-3-4.12-4.36-6.33-2.44-4-4.22-6.93-7.12-8.85a8,8,0,0,0,5.34-7.83c0-5.53-4-8.95-10.5-8.95Zm4.59,3.93h3c4.45,0,6.23,1.83,6.28,4.83,0,2.67-1.36,5.21-6.28,5.21h-3Zm23.67,28h12.47c10.54,0,17-7.78,17-16,0-7.54-5.2-16-17-16H102.35ZM106.94,181H114c9,0,13,5.44,13,11.86,0,3.94-2.39,11.86-12.8,11.86h-7.31Zm35.15-4.12H137.5v32h4.59Zm36.65,0h-4.31v24.74l-21.65-24.74h-3.66v32h4.31v-24.6l21.38,24.6h3.93Zm22,32h12.47c10.55,0,17-7.78,17-16,0-7.54-5.21-16-17-16H200.72Zm4.6-27.84h7.07c9,0,13,5.44,13,11.86,0,3.94-2.39,11.86-12.79,11.86h-7.31ZM254,176.87H235.83v32h18.56v-4.12h-14v-9.94H253.5v-4.12H240.42V181H254Zm41.72,0h-4.55l-9.56,22.45L272,176.87h-4.6l13.83,32.24h.94Zm8.16,0h-4.6v32h4.6Zm11.62,0h-4.59v32h19v-4.12H315.46Zm23,0h-4.59v32h19v-4.12H338.42Zm36.56,0H356.84v32H375.4v-4.12h-14v-9.94h13.08v-4.12H361.43V181H375Z"/><path class="cls-1" d="M324.77,236.94h1.5V222.48h-2l-4.11,4.17,1,1,3.56-3.67ZM336,231.5h1.71c2.13,0,3-.37,3.61-1.29v1.85c0,2.76-.84,3.44-3.69,3.44h-1.54c-2.55,0-3.38-.87-3.42-2.5h-1.5c0,2.77,1.73,4,4.87,4h1.75c3.3,0,5-1,5-4.77v-5.54c0-3-1.85-4.27-5.12-4.27h-1.87c-3.15,0-4.79,1.31-4.79,4.23v1c0,2.71,1.6,3.85,4.95,3.85m1.54-7.56c3,0,3.78.92,3.78,2.75v.9c0,1.21-.42,2.44-3.82,2.44h-1.41c-2.34,0-3.54-.59-3.54-2.53v-.72c0-1.8.74-2.84,3.33-2.84Zm16.44,13c3.71,0,4.83-1.33,4.83-4.67v-.85c0-3-1.5-4.48-4.87-4.48h-1.56c-2.25,0-2.74.42-3.11,1V224h9.14v-1.5H347.8v6.92h1.52c.29-.79,1.17-1,3-1H354c2.64,0,3.35,1,3.35,3.13v.7c0,2.23-.64,3.17-3.35,3.17h-1.75c-2.21,0-3.13-.83-3.17-2.6h-1.5c0,2.79,1.73,4.1,4.67,4.1Zm16.75-9h-2.23c-1.88,0-2.63.34-3.4,1.29v-2.41c0-2.3.81-2.88,3.48-2.88h1.46c3,0,3.67.88,3.71,2.5h1.52c0-2.79-1.75-4-5.15-4h-1.71c-3.08,0-4.81,1-4.81,4.31V233c0,2.9,1.85,4,4.5,4H371c2.77,0,4.41-1.29,4.41-4.31,0-3.6-1.52-4.75-4.64-4.75m-2.15,7.56c-2.71,0-3.48-.81-3.48-2.58v-.73c0-1.67.73-2.75,3.36-2.75h2c2.52,0,3.37.92,3.37,2.67v.75c0,1.62-.75,2.64-3.37,2.64Z"/></g></symbol><symbol id="logo-kartell-right" viewBox="0 0 400 400"><title>logos</title><g id="Layer_2" data-name="Layer 2"><path d="M288.11,375.29v-24c0-7.5-10.15-10.7-16.77-10.7S256,344.17,256,353.33h8.72c0-3.58,3.64-5.33,7.06-5.33s6.22,1.54,6.22,4.34-6.33,3.6-11.11,4.19-13.09,3.9-13.09,12.21,8.23,10.89,12.87,10.89A15.65,15.65,0,0,0,278,375.4a36.14,36.14,0,0,0,1.43,3.64h10.38C289.1,378.71,288.11,376.83,288.11,375.29Zm-10-8.83c0,3.53-5.15,5.22-8.46,5.22s-5.88-1.25-5.88-4.34c0-5.22,7.17-4.78,14.34-6.55Z"/><path d="M300.58,348.14v-5.51h-9.34V379h9.41V360.13c0-7.65,7.14-10.22,11.77-9.34V341.6C301.83,341.6,300.58,348.14,300.58,348.14Z"/><polygon points="254.35 328.83 240.78 328.83 222.57 348.47 222.57 328.83 211.91 328.83 211.91 379.04 222.57 379.04 222.57 361.16 227.76 356.09 243.98 379.04 256.55 379.04 235.15 348.36 254.35 328.83"/><path d="M330,369.25V349.32h6.55V342.7h-6.62V331.15h-9.86V342.7h-5.74v6.55H320v21.4a8.78,8.78,0,0,0,8.6,8.39H337v-7.4h-4.6A2.21,2.21,0,0,1,330,369.25Z"/><rect x="388.78" y="329.16" width="10.22" height="49.87"/><rect x="375.46" y="329.16" width="10.22" height="49.87"/><path d="M355.09,341.15c-11,0-18.39,8.76-18.39,19.64s7,19.21,18.75,19.21,16.92-8.76,17.88-12l-10.3-.44c-1,3.68-4.85,4.49-8,4.49s-7.8-2.28-7.8-8.31h26.12C373.33,348.88,366.05,341.15,355.09,341.15Zm-7.88,14.94c2.21-9.34,12.88-9.71,15.82,0Z"/></g></symbol><symbol id="logo-kartell" viewBox="0 0 400 400"><title>logos</title><g id="Layer_2" data-name="Layer 2"><path d="M182.65,218.07V194.13c0-7.51-10.15-10.71-16.77-10.71s-15.33,3.54-15.33,12.69h8.71c0-3.57,3.64-5.33,7.06-5.33s6.22,1.54,6.22,4.34-6.33,3.6-11.11,4.19-13.09,3.9-13.09,12.21,8.24,10.89,12.87,10.89a15.59,15.59,0,0,0,11.29-4.23,35.81,35.81,0,0,0,1.44,3.64h10.37C183.65,221.49,182.65,219.61,182.65,218.07Zm-10-8.83c0,3.53-5.15,5.23-8.46,5.23s-5.88-1.25-5.88-4.34c0-5.23,7.17-4.79,14.34-6.55Z"/><path d="M195.12,190.93v-5.52h-9.34v36.41h9.42v-18.9c0-7.65,7.13-10.23,11.77-9.34v-9.2C196.37,184.38,195.12,190.93,195.12,190.93Z"/><polygon points="148.89 171.62 135.32 171.62 117.11 191.26 117.11 171.62 106.46 171.62 106.46 221.82 117.11 221.82 117.11 203.95 122.3 198.87 138.52 221.82 151.1 221.82 129.69 191.15 148.89 171.62"/><path d="M224.55,212V192.1h6.54v-6.62h-6.62V173.94h-9.85v11.54h-5.74V192h5.66v21.41a8.78,8.78,0,0,0,8.61,8.38h8.38v-7.39h-4.59A2.21,2.21,0,0,1,224.55,212Z"/><rect x="283.32" y="171.95" width="10.22" height="49.87"/><rect x="270" y="171.95" width="10.22" height="49.87"/><path d="M249.63,183.94c-11,0-18.39,8.75-18.39,19.64s7,19.2,18.76,19.2,16.92-8.76,17.87-12l-10.3-.44c-1,3.67-4.85,4.48-8,4.48s-7.8-2.28-7.8-8.31h26.11C267.87,191.66,260.59,183.94,249.63,183.94Zm-7.87,14.93c2.2-9.34,12.87-9.71,15.81,0Z"/></g></symbol><symbol id="logo-ligne-roset-right" viewBox="0 0 400 400"><title>logos</title><g id="Layer_2" data-name="Layer 2"><rect x="95.22" y="333.61" width="6.29" height="45.93"/><rect x="107.48" y="333.61" width="6.29" height="6.01"/><rect x="107.48" y="345.38" width="6.29" height="34.16"/><path d="M146.71,345.38v3.76a18.16,18.16,0,1,0,0,26.9v2.5c0,3.42-2.55,10.39-12.25,10.39a11.06,11.06,0,0,1-9.05-5.06h-7.06S122.46,395,134.52,395c14.41,0,18.39-9.69,18.39-16.49V345.38Zm-12.19,28.84a11.69,11.69,0,1,1,11.6-11.69,11.64,11.64,0,0,1-11.6,11.69"/><path d="M175.24,344.36c-6.94,0-10.89,3.31-11.5,3.87v-2.85h-6.29v34.16h6.29V358.41c0-2.71,4.57-7.82,11.43-7.82s11.62,5.12,11.62,9.76v19.19h6.29V360.35c0-8-6.86-16-17.85-16"/><path d="M203.75,357.27c.18-.33.65-1.26.85-1.57a10.52,10.52,0,0,1,.67-.9c.24-.29.49-.57.75-.83s.54-.52.82-.76.59-.46.9-.67.63-.4.95-.58a10.42,10.42,0,0,1,1-.49c.35-.15.71-.28,1.07-.4s.73-.21,1.11-.29.76-.13,1.15-.18.79-.05,1.19-.05.79,0,1.18.05.78.11,1.15.18.75.18,1.11.29.72.25,1.07.4a8.57,8.57,0,0,1,1,.49c.33.18.65.37,1,.58s.61.44.89.67.56.49.83.76a9.74,9.74,0,0,1,.74.83,8.76,8.76,0,0,1,.67.9c.21.31.5,1.24.68,1.58ZM232.34,364c0-.31,0-1.35,0-1.66s0-.63,0-.94,0-.61-.07-.92-.07-.61-.11-.91-.1-.59-.16-.89-.13-.59-.21-.88-.16-.58-.25-.86-.18-.57-.28-.85-.21-.55-.32-.82-.24-.54-.37-.8-.26-.53-.4-.79-.28-.51-.44-.75a7.11,7.11,0,0,0-.47-.74l-.5-.72-.54-.68-.57-.66-.6-.63c-.21-.21-.42-.4-.64-.6s-.43-.39-.66-.57-.45-.37-.68-.54a8.3,8.3,0,0,0-.71-.5c-.24-.17-.49-.33-.74-.48s-.5-.3-.76-.44l-.78-.4c-.27-.13-.53-.25-.81-.36s-.54-.22-.82-.33-.56-.2-.85-.28l-.85-.25-.88-.2-.9-.16c-.3,0-.6-.08-.9-.11s-.62-.06-.93-.07-.62,0-.93,0-.62,0-.93,0-.62,0-.93.07-.6.06-.91.11l-.89.16-.88.2-.86.25c-.29.08-.56.18-.85.28s-.55.21-.82.33-.54.23-.8.36-.53.26-.78.4-.52.29-.76.44-.5.31-.74.48a8.3,8.3,0,0,0-.71.5q-.36.25-.69.54t-.66.57l-.63.6-.6.63c-.19.21-.39.44-.57.66l-.54.68-.5.72c-.17.24-.33.48-.48.74s-.29.49-.43.75-.28.52-.41.79l-.36.8c-.12.27-.22.55-.33.82s-.19.56-.28.85-.17.57-.24.86a8.63,8.63,0,0,0-.2.88c-.07.3-.12.59-.17.89s-.08.61-.11.91-.06.61-.07.92,0,.62,0,.94,0,.62,0,.93,0,.62.07.92.06.61.11.91.1.6.17.89.12.59.2.89.15.57.24.85.18.57.28.85.21.55.33.82l.36.81c.13.26.26.52.41.78s.28.51.43.76.31.5.48.73.33.49.5.72l.54.68c.18.23.38.45.57.66l.6.63.63.6.66.57q.33.29.69.54c.23.18.47.35.71.51l.74.47c.24.15.5.3.76.44s.51.27.78.4.53.25.8.36.55.23.82.33l.85.29.86.24.88.2c.29.06.59.12.89.16l.91.12.93.07.93,0,.93,0,.93-.07.9-.12c.3,0,.6-.1.9-.16l.88-.2.85-.24.85-.29c.28-.1.55-.21.82-.33s.54-.23.81-.36l.78-.4c.26-.14.51-.29.76-.44l.74-.47c.24-.16.48-.33.71-.51s.46-.35.68-.54.45-.37.66-.57.43-.39.64-.6l.6-.63.57-.66.54-.68c.17-.23.34-.47.5-.72a7,7,0,0,0,.47-.73c.16-.25.3-.5.44-.76s.28-.52.4-.78.25-.54.37-.81.22-.54.32-.82.2-.56.28-.85.35-1.12.43-1.41h-6.83c-.15.35-.56,1.2-.74,1.53s-.37.65-.58,1a10,10,0,0,1-.67.9,10.35,10.35,0,0,1-1.57,1.58,10,10,0,0,1-.89.68,9.41,9.41,0,0,1-1,.58,8.62,8.62,0,0,1-1,.5c-.35.14-.7.28-1.07.39a10,10,0,0,1-1.11.28,8.61,8.61,0,0,1-1.15.18,11.51,11.51,0,0,1-1.18.06,11.71,11.71,0,0,1-1.19-.06,8.87,8.87,0,0,1-1.15-.18,10,10,0,0,1-1.11-.28c-.36-.11-.72-.25-1.07-.39a12.67,12.67,0,0,1-2-1.08c-.31-.21-.61-.44-.9-.68a9.58,9.58,0,0,1-.82-.75c-.26-.26-.51-.54-.75-.83s-.46-.59-.67-.9-.4-.63-.57-1a8.65,8.65,0,0,1-.49-1c-.15-.35-.28-.71-.4-1.08s-.29-1.38-.37-1.76Z"/><path d="M347.24,357.27c.18-.33.65-1.26.85-1.57a10.52,10.52,0,0,1,.67-.9c.24-.29.49-.57.75-.83s.54-.52.82-.76.59-.46.9-.67.62-.4.95-.58a9.55,9.55,0,0,1,1-.49c.34-.15.7-.28,1.06-.4s.74-.21,1.11-.29.76-.13,1.16-.18.78-.05,1.18-.05.79,0,1.18.05.78.11,1.15.18.75.18,1.12.29.71.25,1.06.4a9.4,9.4,0,0,1,1,.49c.33.18.65.37,1,.58s.61.44.89.67.56.49.83.76a9.74,9.74,0,0,1,.74.83,8.76,8.76,0,0,1,.67.9c.21.31.5,1.24.68,1.58Zm28.6,6.68c0-.31,0-1.35,0-1.66s0-.63,0-.94,0-.61-.07-.92-.07-.61-.12-.91-.1-.59-.16-.89-.13-.59-.2-.88-.16-.58-.24-.86-.19-.57-.29-.85-.21-.55-.32-.82-.24-.54-.37-.8-.26-.53-.4-.79-.29-.51-.44-.75-.31-.5-.47-.74l-.5-.72-.54-.68-.57-.66-.6-.63c-.21-.21-.42-.4-.64-.6s-.43-.39-.65-.57l-.69-.54c-.24-.18-.47-.35-.71-.5s-.49-.33-.74-.48l-.75-.44-.79-.4q-.39-.19-.81-.36c-.27-.12-.54-.22-.82-.33s-.56-.2-.84-.28l-.86-.25-.89-.2-.89-.16c-.3,0-.6-.08-.91-.11s-.61-.06-.92-.07-.62,0-.93,0-.63,0-.94,0-.61,0-.92.07-.6.06-.91.11l-.89.16-.88.2-.86.25c-.29.08-.57.18-.84.28s-.56.21-.83.33-.54.23-.8.36-.53.26-.78.4-.52.29-.76.44-.5.31-.74.48a8.3,8.3,0,0,0-.71.5q-.36.25-.69.54t-.66.57l-.63.6q-.31.32-.6.63c-.19.21-.39.44-.57.66s-.36.45-.54.68-.35.48-.5.72-.33.48-.48.74-.29.49-.44.75-.27.52-.39.79-.26.53-.37.8l-.33.82c-.1.28-.19.56-.28.85s-.17.57-.24.86-.15.58-.21.88-.11.59-.16.89-.08.61-.11.91-.06.61-.07.92,0,.62,0,.94,0,.62,0,.93,0,.62.07.92.07.61.11.91.1.6.16.89.13.59.21.89.15.57.24.85.18.57.28.85l.33.82c.11.27.24.54.37.81s.25.52.39.78l.44.76c.15.25.31.5.48.73s.33.49.5.72.35.46.54.68.38.45.57.66.39.43.6.63l.63.6.66.57q.33.29.69.54c.23.18.47.35.71.51s.48.32.74.47.5.3.76.44.52.27.78.4.53.25.8.36.55.23.83.33.55.2.84.29l.86.24.88.2c.3.06.59.12.89.16s.6.09.91.12l.92.07.94,0,.93,0,.92-.07c.31,0,.61-.07.91-.12s.6-.1.89-.16l.89-.2.86-.24.84-.29c.28-.1.55-.21.82-.33s.55-.23.81-.36l.79-.4.75-.44.74-.47c.24-.16.47-.33.71-.51s.46-.35.69-.54.44-.37.65-.57.43-.39.64-.6l.6-.63.57-.66.54-.68c.17-.23.34-.47.5-.72s.32-.48.47-.73.3-.5.44-.76.27-.52.4-.78.25-.54.37-.81.22-.54.32-.82.2-.56.29-.85.34-1.12.42-1.41h-6.83c-.15.35-.56,1.2-.74,1.53s-.37.65-.58,1a10,10,0,0,1-.67.9,10.35,10.35,0,0,1-1.57,1.58,10,10,0,0,1-.89.68,13.42,13.42,0,0,1-2,1.08c-.35.14-.71.28-1.06.39a10.78,10.78,0,0,1-1.12.28,8.61,8.61,0,0,1-1.15.18,11.51,11.51,0,0,1-1.18.06,11.37,11.37,0,0,1-1.18-.06,8.76,8.76,0,0,1-1.16-.18,10.6,10.6,0,0,1-1.11-.28c-.36-.11-.72-.25-1.06-.39a9.63,9.63,0,0,1-1-.5,9.28,9.28,0,0,1-.95-.58c-.31-.21-.61-.44-.9-.68s-.55-.48-.82-.75-.51-.54-.75-.83-.46-.59-.67-.9-.4-.63-.58-1-.34-.68-.49-1-.27-.71-.38-1.08-.3-1.38-.38-1.76Z"/><path d="M280.72,344.13a18.16,18.16,0,1,0,18.15,18.16,18.16,18.16,0,0,0-18.15-18.16m0,29.78a11.68,11.68,0,1,1,11.59-11.68,11.64,11.64,0,0,1-11.59,11.68"/><path d="M262.91,344.82c-5.21,0-9.52,2.87-10.91,3.71v-3.15h-6.3v34.16H252V361.11c0-.39.05-.83.07-1.32.4-7.93,10.84-9,10.84-9s0-6,0-6"/><path d="M308.3,366.31a3.75,3.75,0,0,0,.17.47c.07.18.15.34.23.51s.16.34.25.51.19.33.28.48a5.66,5.66,0,0,0,.31.48l.32.46.34.44c.12.15.24.28.37.42s.25.28.38.41l.4.39.42.36.44.35c.15.12.3.22.46.33l.46.3.49.28.5.26.52.24.52.2.54.19.55.16c.19,0,.37.09.56.12l.57.11.58.07.59,0h1.2l.58,0,.58-.07.58-.11.56-.12.55-.16.54-.19.52-.2.52-.24.49-.26.49-.28.47-.3a5.22,5.22,0,0,0,.45-.33c.16-.11.3-.23.45-.35s.28-.23.41-.36.28-.26.41-.39.26-.27.38-.41.25-.27.37-.42l.34-.44.32-.46a3.88,3.88,0,0,0,.3-.48c.1-.15.19-.32.28-.48s.18-.33.26-.51.16-.33.23-.51.14-.35.21-.54.13-.35.18-.54.11-.36.16-.55.09-.37.13-.57.07-.38.1-.57.09-.58.11-.78H301c0-.31,0-.62,0-.93s0-.63,0-.94,0-.61.07-.92.07-.61.12-.91.1-.59.15-.89.13-.59.21-.88.15-.58.24-.86.19-.57.29-.85.21-.55.32-.82.24-.54.37-.8.26-.53.39-.79.29-.51.44-.75.31-.5.48-.74l.5-.72.54-.68.57-.66.6-.63.63-.6c.21-.2.44-.39.66-.57s.46-.37.69-.54a8.3,8.3,0,0,1,.71-.5c.24-.17.49-.33.74-.48s.5-.3.76-.44.51-.27.78-.4.53-.25.81-.36.54-.22.82-.33.56-.2.84-.28l.87-.25.87-.2.89-.16c.3,0,.61-.08.91-.11s.62-.06.93-.07.62,0,.93,0,.63,0,.93,0,.62,0,.92.07.61.06.91.11l.9.16.88.2.86.25c.28.08.56.18.84.28s.56.21.82.33.55.23.81.36.53.26.78.4.51.29.76.44.5.31.74.48a8.3,8.3,0,0,1,.71.5q.35.25.69.54c.22.18.44.37.65.57s.43.39.63.6l.61.63c.2.21.38.44.57.66s.37.45.54.68l.5.72c.16.24.32.48.48.74s.29.49.43.75.13.15.26.42h-8c-.13-.13-.32-.34-.46-.47s-.28-.25-.41-.37-.29-.23-.45-.34a5.22,5.22,0,0,0-.45-.33c-.15-.1-.31-.21-.47-.3a4.76,4.76,0,0,0-.49-.28c-.16-.1-.33-.18-.49-.26a4.83,4.83,0,0,0-.52-.23l-.52-.22-.54-.18-.55-.16-.56-.13-.58-.1-.58-.08-.58,0h-1.2l-.59,0-.58.08-.57.1-.56.13-.55.16-.54.18-.52.22a4.83,4.83,0,0,0-.52.23c-.16.08-.33.16-.5.26s-.32.18-.49.28l-.46.3c-.16.11-.31.21-.46.33l-.44.34-.42.37c-.13.13-.27.25-.4.39s-.26.26-.38.4-.25.28-.37.43l-.34.44c-.11.15-.22.3-.32.46s-.21.31-.31.47l-.28.49c-.09.16-.17.33-.25.5s-.11.06-.18.24h28.14c.07.29.21.93.28,1.23s.11.59.16.89.08.61.11.91.06.61.07.92,0,.62,0,.94,0,.62,0,.93,0,.62-.07.92-.07.61-.11.91-.1.6-.16.89-.13.59-.21.89-.15.57-.24.85-.19.57-.29.85-.21.55-.32.82-.24.54-.37.81-.26.52-.4.78-.28.51-.43.76-.32.5-.48.73-.33.49-.5.72-.36.46-.54.68-.37.45-.57.66-.4.43-.61.63-.41.41-.63.6-.43.39-.65.57-.46.37-.69.54-.47.35-.71.51l-.74.47c-.25.15-.5.3-.76.44s-.51.27-.78.4-.53.25-.81.36-.54.23-.82.33l-.84.29-.86.24-.88.2c-.3.06-.59.12-.9.16s-.6.09-.91.12l-.92.07-.93,0-.93,0-.93-.07c-.3,0-.61-.07-.91-.12s-.59-.1-.89-.16l-.87-.2-.87-.24-.84-.29c-.28-.1-.55-.21-.82-.33s-.55-.23-.81-.36-.53-.26-.78-.4-.52-.29-.76-.44l-.74-.47c-.24-.16-.48-.33-.71-.51s-.46-.35-.69-.54-.45-.37-.66-.57l-.63-.6-.6-.63-.57-.66-.54-.68c-.17-.23-.34-.47-.5-.72s-.32-.48-.48-.73-.3-.5-.44-.76-.27-.52-.39-.78-.25-.54-.37-.81-.22-.54-.32-.82-.2-.56-.29-.85-.17-.57-.24-.85a5.08,5.08,0,0,1-.15-.52Z"/><path d="M385.55,363.23h11.22v-6.15h-11.5V340.7h-6.44v21.37c0,.63.06,1.51.11,2.13s.14.94.25,1.53.28,1.17.46,1.74a15.77,15.77,0,0,0,.6,1.67c.23.54.49,1.07.77,1.59a17.44,17.44,0,0,0,.91,1.49,17.13,17.13,0,0,0,2.22,2.69c.4.41.83.8,1.28,1.18s.92.71,1.4,1a16.26,16.26,0,0,0,1.5.92c.51.28,1,.53,1.58.76a16.68,16.68,0,0,0,1.67.61,17.08,17.08,0,0,0,1.74.45c.59.12,1.2.21,1.81.28s1.23.08,1.86.08V373.7a11.71,11.71,0,0,1-1.19-.06,10.23,10.23,0,0,1-1.15-.18c-.38-.08-.75-.17-1.12-.28s-.72-.25-1.06-.39-.69-.32-1-.5-.65-.38-.95-.58-.61-.44-.9-.68-.55-.48-.82-.75a9.74,9.74,0,0,1-.74-.83,9.54,9.54,0,0,1-.67-.9c-.21-.31-.41-.64-.59-1s-.34-.67-.48-1a9,9,0,0,1-.39-1.07,10.21,10.21,0,0,1-.29-1.12,7.67,7.67,0,0,1-.08-1.14"/></g></symbol><symbol id="logo-ligne-roset" viewBox="0 0 400 400"><title>logos</title><g id="Layer_2" data-name="Layer 2"><rect x="49.11" y="172.62" width="6.29" height="45.93"/><rect x="61.37" y="172.62" width="6.29" height="6.01"/><rect x="61.37" y="184.38" width="6.29" height="34.16"/><path d="M100.6,184.39v3.75a18.16,18.16,0,1,0,0,26.91v2.49c0,3.42-2.55,10.39-12.25,10.39a11.06,11.06,0,0,1-9-5.06H72.24S76.35,234,88.41,234c14.41,0,18.38-9.69,18.38-16.48V184.39ZM88.41,213.22A11.69,11.69,0,1,1,100,201.54a11.64,11.64,0,0,1-11.6,11.68"/><path d="M129.13,183.36a17.4,17.4,0,0,0-11.5,3.87v-2.84h-6.29v34.16h6.29V197.42c0-2.72,4.56-7.82,11.43-7.82s11.62,5.11,11.62,9.75v19.2H147v-19.2c0-8-6.86-16-17.85-16"/><path d="M157.64,196.27c.18-.33.65-1.26.85-1.57s.44-.61.67-.9.49-.57.75-.83.54-.52.82-.76.59-.46.9-.66.62-.41,1-.59.67-.34,1-.49a10.55,10.55,0,0,1,1.07-.39,8.22,8.22,0,0,1,1.11-.29c.38-.08.76-.14,1.15-.19s.79,0,1.19,0,.79,0,1.18,0,.78.11,1.15.19a8.22,8.22,0,0,1,1.11.29,9.74,9.74,0,0,1,1.07.39,10.49,10.49,0,0,1,1,.49c.33.18.65.38,1,.59s.6.43.89.66.56.5.83.76a9.74,9.74,0,0,1,.74.83c.24.29.46.59.67.9s.5,1.25.67,1.58ZM186.23,203c0-.3,0-1.34,0-1.66s0-.63,0-.94,0-.61-.07-.92-.07-.6-.12-.91-.1-.59-.16-.89-.13-.59-.2-.88-.16-.58-.25-.86-.18-.57-.28-.84-.21-.56-.33-.83-.23-.54-.36-.8-.26-.53-.4-.78-.28-.52-.44-.76-.3-.5-.47-.74-.33-.48-.51-.72-.35-.45-.53-.68l-.57-.65-.6-.64-.64-.6c-.21-.19-.43-.39-.66-.57l-.68-.54-.71-.5c-.24-.17-.49-.32-.74-.48l-.76-.43c-.26-.15-.52-.28-.78-.4l-.81-.37-.82-.33-.85-.28c-.28-.09-.57-.17-.85-.24s-.59-.15-.88-.21-.6-.11-.9-.15l-.9-.12c-.31,0-.62-.06-.93-.07s-.62,0-.93,0-.63,0-.93,0-.62,0-.93.07-.6.07-.91.12-.6.09-.89.15-.59.13-.88.21-.58.15-.86.24l-.85.28-.82.33-.8.37a7.16,7.16,0,0,0-.78.4c-.26.14-.52.28-.76.43s-.5.31-.74.48-.48.33-.72.5l-.68.54-.66.57-.63.6c-.2.21-.41.42-.6.64s-.39.43-.57.65l-.54.68-.5.72c-.17.24-.33.48-.48.74s-.3.5-.43.76-.28.51-.41.78-.25.53-.36.8-.22.55-.33.83-.19.55-.28.84-.17.58-.25.86-.14.58-.2.88-.11.6-.16.89-.08.61-.11.91-.06.62-.07.92,0,.63,0,.94,0,.62,0,.93,0,.62.07.93.06.6.11.9.1.6.16.9.13.59.2.88.16.57.25.86.18.56.28.84.21.56.33.82.24.55.36.81.26.53.41.78.28.51.43.76.31.5.48.74.33.48.5.71l.54.69c.18.22.38.44.57.66s.4.42.6.63l.63.6.66.57.68.54c.24.17.47.34.72.5a8.35,8.35,0,0,0,.74.47l.76.45.78.39.8.37.82.32.85.29c.28.09.57.17.86.24s.58.15.88.2.59.12.89.17l.91.11.93.07.93,0,.93,0,.93-.07.9-.11c.3-.05.6-.1.9-.17s.59-.13.88-.2.57-.15.85-.24l.85-.29.82-.32.81-.37.78-.39.76-.45a8.35,8.35,0,0,0,.74-.47l.71-.5.68-.54.66-.57.64-.6.6-.63.57-.66.53-.69c.18-.23.35-.47.51-.71s.32-.49.47-.74.3-.5.44-.76.28-.52.4-.78.25-.53.36-.81.23-.54.33-.82.2-.56.28-.84.35-1.12.43-1.42H179c-.15.35-.56,1.2-.74,1.53s-.37.65-.58,1-.43.61-.67.89-.48.57-.74.84-.54.51-.83.75-.58.46-.89.67-.63.41-1,.59a10.49,10.49,0,0,1-1,.49,9.74,9.74,0,0,1-1.07.39,10,10,0,0,1-1.11.29,10.61,10.61,0,0,1-1.15.17,11.51,11.51,0,0,1-1.18.06,11.71,11.71,0,0,1-1.19-.06,11,11,0,0,1-1.15-.17,10,10,0,0,1-1.11-.29,10.55,10.55,0,0,1-1.07-.39c-.34-.15-.68-.31-1-.49s-.64-.38-1-.59-.61-.44-.9-.67-.56-.49-.82-.75-.51-.55-.75-.84-.46-.59-.67-.89-.4-.63-.58-1-.34-.67-.49-1-.27-.7-.39-1.07-.29-1.39-.37-1.76Z"/><path d="M301.13,196.27c.18-.33.64-1.26.85-1.57s.43-.61.67-.9a9.85,9.85,0,0,1,.75-.83c.26-.26.54-.52.82-.76s.59-.46.89-.66.63-.41,1-.59.67-.34,1-.49a9.58,9.58,0,0,1,1.06-.39,8.22,8.22,0,0,1,1.11-.29c.38-.08.76-.14,1.15-.19s.78,0,1.19,0,.79,0,1.18,0,.77.11,1.15.19a8.22,8.22,0,0,1,1.11.29,10.55,10.55,0,0,1,1.07.39c.35.15.68.31,1,.49s.65.38,1,.59a9.76,9.76,0,0,1,.89.66c.29.24.56.5.83.76s.5.54.74.83.46.59.67.9.5,1.25.67,1.58ZM329.72,203c0-.31,0-1.34,0-1.66s0-.63,0-.94-.05-.61-.07-.92-.07-.6-.12-.91-.1-.59-.16-.89-.13-.59-.2-.88l-.24-.86c-.09-.29-.19-.57-.29-.84s-.21-.56-.32-.83-.24-.54-.37-.8-.26-.53-.4-.78-.29-.52-.44-.76-.31-.5-.47-.74-.33-.48-.51-.72-.35-.45-.54-.68-.37-.44-.57-.65-.39-.43-.59-.64l-.64-.6c-.21-.19-.43-.39-.65-.57l-.69-.54-.71-.5c-.24-.17-.49-.32-.74-.48l-.76-.43c-.26-.15-.52-.28-.78-.4s-.53-.25-.81-.37l-.82-.33L317,184q-.44-.13-.87-.24c-.29-.08-.58-.15-.88-.21s-.59-.11-.89-.15-.6-.09-.91-.12-.61-.06-.92-.07-.62,0-.93,0-.63,0-.94,0-.61,0-.92.07-.61.07-.91.12-.59.09-.89.15-.59.13-.88.21-.58.15-.86.24l-.84.28-.83.33-.8.37c-.26.12-.53.25-.79.4l-.76.43c-.25.16-.49.31-.73.48l-.71.5-.69.54c-.22.18-.44.38-.66.57l-.63.6c-.21.21-.41.42-.6.64s-.39.43-.57.65l-.54.68q-.27.36-.51.72c-.16.24-.32.48-.47.74s-.29.5-.44.76-.27.51-.39.78-.26.53-.37.8l-.33.83c-.1.27-.19.55-.28.84s-.17.58-.25.86-.14.58-.2.88-.11.6-.16.89-.08.61-.11.91-.06.62-.07.92,0,.63,0,.94,0,.62,0,.93,0,.62.07.93.07.6.11.9.1.6.16.9.13.59.2.88.16.57.25.86.18.56.28.84.22.56.33.82.24.55.37.81.25.53.39.78l.44.76c.15.25.31.5.47.74s.33.48.51.71.35.46.54.69.37.44.57.66.39.42.6.63l.63.6.66.57.69.54.71.5a8.21,8.21,0,0,0,.73.47l.76.45.79.39.8.37.83.32c.27.1.55.2.84.29s.57.17.86.24.58.15.88.2.59.12.89.17l.91.11.92.07.94,0,.93,0,.92-.07.91-.11c.3-.05.6-.1.89-.17s.59-.13.88-.2.58-.15.87-.24l.84-.29.82-.32c.28-.12.55-.24.81-.37l.78-.39.76-.45a8.35,8.35,0,0,0,.74-.47l.71-.5.69-.54.65-.57.64-.6.59-.63q.3-.33.57-.66t.54-.69c.18-.23.35-.47.51-.71s.32-.49.47-.74.3-.5.44-.76.27-.52.4-.78.25-.53.37-.81.22-.54.32-.82.2-.56.29-.84.34-1.12.42-1.42h-6.83c-.15.35-.56,1.2-.74,1.53s-.37.65-.58,1-.43.61-.67.89-.49.57-.74.84-.54.51-.83.75-.58.46-.89.67-.63.41-1,.59-.66.34-1,.49a10.55,10.55,0,0,1-1.07.39,10,10,0,0,1-1.11.29,11,11,0,0,1-1.15.17,11.73,11.73,0,0,1-2.37,0,11,11,0,0,1-1.15-.17,10,10,0,0,1-1.11-.29,9.58,9.58,0,0,1-1.06-.39c-.35-.15-.69-.31-1-.49s-.64-.38-1-.59-.6-.44-.89-.67-.56-.49-.82-.75-.51-.55-.75-.84-.46-.59-.67-.89-.4-.63-.58-1-.34-.67-.49-1-.27-.7-.39-1.07-.29-1.39-.37-1.76Z"/><path d="M234.61,183.14a18.15,18.15,0,1,0,18.15,18.15,18.15,18.15,0,0,0-18.15-18.15m0,29.77a11.68,11.68,0,1,1,11.59-11.67,11.63,11.63,0,0,1-11.59,11.67"/><path d="M216.8,183.83c-5.21,0-9.52,2.87-10.91,3.7v-3.14h-6.3v34.16h6.3V200.11c0-.39.05-.82.07-1.32.4-7.92,10.84-9,10.84-9s0-6,0-6"/><path d="M262.19,205.31a3.75,3.75,0,0,0,.17.47c.07.18.15.35.23.52l.25.5c.09.17.19.33.28.49s.2.32.31.48.2.3.32.45l.34.44c.12.15.24.29.37.43s.25.27.38.41l.4.38.42.37.44.34c.15.12.3.22.46.33l.46.3.49.29.5.25.52.24.52.21.54.18.55.16.56.13.57.1a5.73,5.73,0,0,0,.58.07,5.63,5.63,0,0,0,.59.05h1.19a5.63,5.63,0,0,0,.59-.05,5.41,5.41,0,0,0,.58-.07l.58-.1.56-.13.55-.16.54-.18.52-.21.52-.24.49-.25.49-.29c.16-.09.31-.2.47-.3s.31-.21.45-.33.3-.23.45-.34l.41-.37c.14-.12.27-.25.4-.38s.27-.27.38-.41a5.08,5.08,0,0,0,.38-.43l.34-.44.32-.45q.17-.24.3-.48c.1-.16.19-.32.28-.49s.18-.33.26-.5.15-.34.23-.52l.21-.53c.06-.17.12-.36.18-.54s.11-.37.15-.56a5.09,5.09,0,0,0,.14-.56c0-.19.07-.38.1-.58s.09-.58.11-.78H254.92c0-.31,0-.61,0-.93s0-.63,0-.94,0-.61.07-.92.07-.6.12-.91.1-.59.15-.89.13-.59.21-.88.15-.58.24-.86.18-.57.29-.84.21-.56.32-.83.24-.54.37-.8.26-.53.39-.78.29-.52.44-.76.31-.5.48-.74l.5-.72.54-.68.57-.65.6-.64.63-.6c.21-.19.43-.39.66-.57l.69-.54.71-.5c.24-.17.49-.32.73-.48s.51-.29.77-.43a7.16,7.16,0,0,1,.78-.4l.8-.37.82-.33.85-.28q.42-.13.87-.24c.28-.08.58-.15.87-.21s.59-.11.89-.15.61-.09.91-.12.62-.06.93-.07.62,0,.93,0,.63,0,.93,0,.62,0,.92.07.61.07.91.12.6.09.9.15l.88.21c.29.07.57.15.86.24l.84.28.82.33c.28.12.55.24.81.37a8.2,8.2,0,0,1,.78.4l.76.43c.25.16.5.31.74.48l.71.5.69.54c.22.18.44.38.65.57l.63.6c.21.21.41.42.61.64l.57.65.54.68.5.72c.16.24.32.48.48.74s.29.5.43.76.13.15.26.41h-8c-.13-.13-.32-.34-.46-.47s-.28-.24-.41-.37-.29-.23-.45-.34-.3-.22-.45-.32l-.47-.31-.49-.28-.49-.26-.52-.23c-.17-.08-.35-.15-.52-.21s-.37-.13-.54-.18-.37-.12-.55-.16-.38-.1-.56-.13l-.58-.11-.58-.08-.59,0h-1.19l-.59,0-.58.08-.57.11a5.66,5.66,0,0,0-.56.13,5,5,0,0,0-.55.16l-.54.18a4.71,4.71,0,0,0-.52.21l-.52.23-.5.26-.49.28-.46.31c-.16.1-.31.21-.46.32l-.44.34-.42.37-.4.39c-.13.13-.26.27-.38.41s-.25.28-.37.42l-.34.44a4.73,4.73,0,0,0-.32.46l-.31.47-.28.49c-.09.17-.17.34-.25.51s-.11.06-.18.23h28.13c.08.29.22.93.29,1.23s.11.6.16.89.08.61.11.91.06.62.07.92,0,.63,0,.94,0,.62,0,.93,0,.62-.07.93-.07.6-.11.9-.1.6-.16.9-.13.59-.21.88-.15.57-.24.86-.19.56-.29.84-.21.56-.32.82-.24.55-.37.81-.26.53-.4.78-.29.51-.43.76l-.48.74c-.16.24-.33.48-.5.71l-.54.69-.57.66-.61.63-.63.6-.65.57-.69.54-.71.5a8.35,8.35,0,0,1-.74.47l-.76.45-.78.39c-.26.13-.53.25-.81.37l-.82.32-.84.29c-.29.09-.57.17-.86.24s-.59.15-.88.2-.6.12-.9.17l-.91.11-.92.07-.93,0-.93,0-.93-.07-.91-.11c-.3-.05-.59-.1-.89-.17s-.59-.13-.87-.2-.59-.15-.87-.24l-.85-.29L266,218l-.8-.37-.78-.39-.77-.45c-.24-.14-.49-.3-.73-.47l-.71-.5-.69-.54-.66-.57-.63-.6-.6-.63-.57-.66c-.19-.23-.36-.46-.54-.69s-.34-.47-.5-.71-.32-.49-.48-.74-.3-.5-.44-.76-.27-.52-.39-.78-.25-.53-.37-.81-.22-.54-.32-.82-.2-.56-.29-.84-.17-.57-.24-.86a4.44,4.44,0,0,1-.15-.52Z"/><path d="M339.43,202.23h11.23v-6.14h-11.5V179.71h-6.44v21.37c0,.62,0,1.51.11,2.12a15.25,15.25,0,0,0,.25,1.53c.13.59.27,1.17.45,1.74s.38,1.13.61,1.67.49,1.07.77,1.59a17.44,17.44,0,0,0,.91,1.49,15.86,15.86,0,0,0,1,1.4c.37.45.76.88,1.17,1.3s.84.8,1.29,1.17.92.72,1.4,1a16.17,16.17,0,0,0,1.5.91,15.29,15.29,0,0,0,1.58.76c.55.23,1.1.44,1.67.62s1.15.32,1.74.44,1.19.21,1.8.28,1.24.09,1.87.09V212.7a11.9,11.9,0,0,1-1.2-.06,10.42,10.42,0,0,1-1.14-.17c-.39-.08-.75-.18-1.12-.29a11,11,0,0,1-1.06-.39c-.35-.15-.69-.31-1-.49s-.65-.38-1-.59-.61-.44-.9-.67-.55-.49-.82-.76-.51-.54-.75-.83-.46-.59-.66-.89-.41-.64-.59-1-.34-.67-.49-1-.27-.71-.38-1.08a10,10,0,0,1-.29-1.11,8.41,8.41,0,0,1-.09-1.15"/></g></symbol><symbol id="logo-london-art-right" viewBox="0 0 400 400"><title>logos</title><g id="Layer_2" data-name="Layer 2"><path d="M391.72,254.61V372.72H273.61V254.61H391.72m7.28-7.28H266.33V380H399V247.33Z"/><polygon points="286.21 262.6 294.29 262.6 294.29 285.24 308.11 285.24 308.11 291.78 286.21 291.78 286.21 262.6"/><polygon points="375.96 289.98 382.77 289.98 382.77 260.8 374.69 260.8 374.69 275.58 363.87 260.8 357.06 260.8 357.06 289.98 365.14 289.98 365.14 275.2 375.96 289.98"/><path d="M333.65,260.36h-.34c-7.81,0-12.15,5.81-12.15,9.88v9.92c0,4.07,4.34,9.88,12.15,9.88h.34c7.81,0,12.15-5.81,12.15-9.88v-9.92C345.8,266.17,341.46,260.36,333.65,260.36Zm4.29,19.1a4.46,4.46,0,0,1-8.92,0v-8.52a4.46,4.46,0,0,1,8.92,0Z"/><polygon points="375.96 326.11 382.77 326.11 382.77 296.93 374.69 296.93 374.69 311.71 363.87 296.93 357.06 296.93 357.06 326.11 365.14 326.11 365.14 311.33 375.96 326.11"/><path d="M333.65,296.48h-.34c-7.81,0-12.15,5.81-12.15,9.89v9.92c0,4.07,4.34,9.88,12.15,9.88h.34c7.81,0,12.15-5.81,12.15-9.88v-9.92C345.8,302.29,341.46,296.48,333.65,296.48Zm4.29,19.1a4.46,4.46,0,0,1-8.92,0v-8.51a4.46,4.46,0,0,1,8.92,0Z"/><path d="M297.76,298.73H285.6v29.18h12.16c5.54,0,11.95-1.94,11.95-8.55V307.27C309.71,300.66,303.3,298.73,297.76,298.73Zm4,19.1c0,1.6-1.87,3.54-4,3.54h-4.21v-16.1h4.61c2.14,0,3.61,2.07,3.61,4.61Z"/><polygon points="282.67 364.04 294.62 334.92 298.16 334.92 298.16 345.88 291.15 364.04 282.67 364.04"/><polygon points="312.84 364.04 300.89 334.92 297.35 334.92 297.35 345.88 304.36 364.04 312.84 364.04"/><rect x="292.24" y="353.77" width="12.51" height="5.88"/><path d="M340.83,349.88c8.15-3.47,7.22-16.76-3.54-16.76H321.93v29.12h8l-.07-11.09h2.78l6,11.09H348Zm-5.61-4.34h-5.34v-6h5.34C338.76,339.53,338.76,345.54,335.22,345.54Z"/><rect x="357.6" y="333.12" width="24.24" height="6.41"/><rect x="365.74" y="338" width="7.95" height="24.24"/></g></symbol><symbol id="logo-london-art" viewBox="0 0 400 400"><title>logos</title><g id="Layer_2" data-name="Layer 2"><path d="M259.06,117.66V235.77H140.94V117.66H259.06m7.28-7.28H133.66V243.05H266.34V110.38Z"/><polygon points="153.54 125.65 161.62 125.65 161.62 148.29 175.45 148.29 175.45 154.84 153.54 154.84 153.54 125.65"/><polygon points="243.3 153.03 250.11 153.03 250.11 123.85 242.03 123.85 242.03 138.64 231.21 123.85 224.4 123.85 224.4 153.03 232.48 153.03 232.48 138.25 243.3 153.03"/><path d="M201,123.41h-.33c-7.82,0-12.16,5.81-12.16,9.88v9.92c0,4.07,4.34,9.88,12.16,9.88H201c7.82,0,12.16-5.81,12.16-9.88v-9.92C213.14,129.22,208.8,123.41,201,123.41Zm4.29,19.1a4.46,4.46,0,1,1-8.91,0V134a4.46,4.46,0,0,1,8.91,0Z"/><polygon points="243.3 189.16 250.11 189.16 250.11 159.98 242.03 159.98 242.03 174.76 231.21 159.98 224.4 159.98 224.4 189.16 232.48 189.16 232.48 174.38 243.3 189.16"/><path d="M201,159.54h-.33c-7.82,0-12.16,5.81-12.16,9.88v9.92c0,4.07,4.34,9.88,12.16,9.88H201c7.82,0,12.16-5.81,12.16-9.88v-9.92C213.14,165.35,208.8,159.54,201,159.54Zm4.29,19.1a4.46,4.46,0,1,1-8.91,0v-8.52a4.46,4.46,0,0,1,8.91,0Z"/><path d="M165.1,161.78H152.94V191H165.1c5.54,0,12-1.93,12-8.54V170.33C177.05,163.72,170.64,161.78,165.1,161.78Zm4,19.1c0,1.6-1.87,3.54-4,3.54h-4.21V168.33h4.61c2.13,0,3.6,2.07,3.6,4.6Z"/><polygon points="150 227.09 161.96 197.98 165.5 197.98 165.5 208.93 158.48 227.09 150 227.09"/><polygon points="180.18 227.09 168.22 197.98 164.68 197.98 164.68 208.93 171.7 227.09 180.18 227.09"/><rect x="159.57" y="216.82" width="12.51" height="5.88"/><path d="M208.17,212.94c8.15-3.47,7.21-16.76-3.54-16.76H189.27v29.11h8l-.06-11.08H200l6,11.08h9.35Zm-5.61-4.34h-5.34v-6h5.34C206.1,202.59,206.1,208.6,202.56,208.6Z"/><rect x="224.93" y="196.18" width="24.24" height="6.41"/><rect x="233.08" y="201.05" width="7.95" height="24.24"/></g></symbol><symbol id="logo-maison-corbeil-right" viewBox="0 0 400 400"><title>logos</title><g id="Layer_2" data-name="Layer 2"><polygon class="cls-1" points="14.46 361.08 14.39 361.08 14.39 379.4 10.2 379.4 10.2 355.22 16.55 355.22 24.11 373.15 31.79 355.22 38.01 355.22 38.01 379.4 33.81 379.4 33.81 361.08 33.75 361.08 26 379.4 22.24 379.4 14.46 361.08"/><path class="cls-1" d="M62.55,369.79,57.49,359l-5.05,10.78ZM54.8,355.22h5.39L71.93,379.4h-5l-2.53-5.55H50.48l-2.56,5.55h-5Z"/><rect class="cls-1" x="76.85" y="355.22" width="4.72" height="24.18"/><path class="cls-1" d="M108.81,362.57c-.77-2.16-2.73-4-8.48-4-3.2,0-6.42.8-6.42,3,0,1,.6,2.12,5.42,2.72l5.72.87c5.42.83,8.61,2.92,8.61,7,0,5.72-5.45,7.85-11.9,7.85-10.38,0-12.91-5.12-13.47-6.95l4.55-1.43c.87,1.76,2.67,4.32,9,4.32,3.86,0,7-1.26,7-3.36,0-1.56-1.8-2.59-5.25-3l-5.79-.8c-5.59-.77-8.71-3.19-8.71-6.88,0-7.26,9.41-7.26,11.27-7.26,10.41,0,12.21,4.83,12.8,6.49Z"/><path class="cls-1" d="M143.1,367.23c0-5.82-4.16-8.55-9.68-8.55s-9.68,2.73-9.68,8.55c0,6.85,5.15,8.71,9.68,8.71s9.68-1.86,9.68-8.71m-9.68-12.61c10.64,0,14.4,6.26,14.4,12.87,0,5-3,12.51-14.4,12.51S119,372.52,119,367.49c0-6.61,3.76-12.87,14.4-12.87"/><polygon class="cls-1" points="154.37 355.22 159.36 355.22 175.52 372.68 175.52 355.22 180.04 355.22 180.04 379.4 175.72 379.4 158.89 361.31 158.89 379.4 154.37 379.4 154.37 355.22"/><path class="cls-1" d="M228,370.79c-.46,2.69-2.39,9.21-13.5,9.21-7.65,0-13.67-4.26-13.67-13.07,0-7.05,4.43-12.31,14-12.31,10.81,0,12.4,7,12.77,8.32h-4.72c-.27-.83-2.13-4.26-7.79-4.26-6.68,0-9.47,3.76-9.47,8.78,0,5.55,4,8.48,9.21,8.48,5.52,0,7.95-3.29,8.41-5.15Z"/><path class="cls-1" d="M257,367.23c0-5.82-4.16-8.55-9.68-8.55s-9.68,2.73-9.68,8.55c0,6.85,5.16,8.71,9.68,8.71s9.68-1.86,9.68-8.71m-9.68-12.61c10.64,0,14.4,6.26,14.4,12.87,0,5-3,12.51-14.4,12.51S233,372.52,233,367.49c0-6.61,3.76-12.87,14.4-12.87"/><path class="cls-1" d="M282.14,366c3.85,0,5.82-.57,5.82-3.43s-2-3.39-5.82-3.39H273V366ZM268.3,355.22h14.54c5.72,0,9.84,1.3,9.84,7.22a6.84,6.84,0,0,1-6.75,7.12l7.42,9.84h-5.82l-7-9.51H273v9.51H268.3Z"/><path class="cls-1" d="M315.26,375.48c3,0,5.26-.6,5.26-3.46,0-2.53-2.07-3.33-5.26-3.33H305v6.79Zm-.13-10.71c3.09,0,4.45-.77,4.45-2.8s-1.36-2.82-4.45-2.82H305v5.62Zm-14.87-9.55h14.57c5.69,0,9.48,1.6,9.48,6.19a5.25,5.25,0,0,1-2.8,5,6.45,6.45,0,0,1,3.73,5.95c0,4.56-3.63,7-9.51,7H300.26Z"/><polygon class="cls-1" points="332.72 355.22 354.4 355.22 354.4 359.28 337.44 359.28 337.44 364.9 352.04 364.9 352.04 368.96 337.44 368.96 337.44 375.34 354.8 375.34 354.8 379.4 332.72 379.4 332.72 355.22"/><rect class="cls-1" x="362.95" y="355.22" width="4.72" height="24.18"/><polygon class="cls-1" points="376.75 355.22 381.47 355.22 381.47 375.21 399 375.21 399 379.4 376.75 379.4 376.75 355.22"/></g></symbol><symbol id="logo-maison-corbeil" viewBox="0 0 400 400"><title>logos</title><g id="Layer_2" data-name="Layer 2"><polygon class="cls-1" points="9.86 190.3 9.79 190.3 9.79 208.63 5.6 208.63 5.6 184.45 11.95 184.45 19.5 202.37 27.18 184.45 33.4 184.45 33.4 208.63 29.21 208.63 29.21 190.3 29.15 190.3 21.4 208.63 17.64 208.63 9.86 190.3"/><path class="cls-1" d="M58,199l-5.06-10.77-5,10.77ZM50.2,184.45h5.39l11.74,24.17h-5l-2.53-5.55H45.88l-2.57,5.55h-5Z"/><rect class="cls-1" x="72.25" y="184.45" width="4.72" height="24.18"/><path class="cls-1" d="M104.21,191.8c-.77-2.16-2.73-4-8.48-4-3.2,0-6.42.8-6.42,3,0,1,.6,2.13,5.42,2.73l5.72.86c5.42.83,8.61,2.93,8.61,7,0,5.72-5.45,7.85-11.9,7.85-10.38,0-12.91-5.12-13.47-6.95l4.55-1.43c.87,1.76,2.66,4.33,9.05,4.33,3.86,0,7-1.27,7-3.36,0-1.57-1.8-2.6-5.26-3L93.3,198c-5.59-.76-8.72-3.19-8.72-6.88,0-7.25,9.42-7.25,11.28-7.25,10.41,0,12.2,4.82,12.8,6.48Z"/><path class="cls-1" d="M138.49,196.45c0-5.82-4.15-8.55-9.67-8.55s-9.68,2.73-9.68,8.55c0,6.85,5.15,8.72,9.68,8.72s9.67-1.87,9.67-8.72m-9.67-12.6c10.64,0,14.4,6.25,14.4,12.87,0,5-3,12.5-14.4,12.5s-14.4-7.48-14.4-12.5c0-6.62,3.75-12.87,14.4-12.87"/><polygon class="cls-1" points="149.77 184.45 154.75 184.45 170.92 201.91 170.92 184.45 175.44 184.45 175.44 208.62 171.12 208.62 154.29 190.53 154.29 208.62 149.77 208.62 149.77 184.45"/><path class="cls-1" d="M223.36,200c-.46,2.69-2.39,9.21-13.5,9.21-7.65,0-13.67-4.25-13.67-13.07,0-7.05,4.42-12.3,14-12.3,10.8,0,12.4,7,12.77,8.31h-4.73c-.26-.83-2.12-4.26-7.78-4.26-6.68,0-9.48,3.76-9.48,8.78,0,5.56,4,8.48,9.22,8.48,5.52,0,7.94-3.29,8.41-5.15Z"/><path class="cls-1" d="M252.43,196.45c0-5.82-4.16-8.55-9.68-8.55s-9.68,2.73-9.68,8.55c0,6.85,5.16,8.72,9.68,8.72s9.68-1.87,9.68-8.72m-9.68-12.6c10.64,0,14.4,6.25,14.4,12.87,0,5-3,12.5-14.4,12.5s-14.4-7.48-14.4-12.5c0-6.62,3.76-12.87,14.4-12.87"/><path class="cls-1" d="M277.54,195.19c3.85,0,5.82-.57,5.82-3.43s-2-3.39-5.82-3.39h-9.12v6.82ZM263.7,184.45h14.53c5.73,0,9.85,1.29,9.85,7.21a6.84,6.84,0,0,1-6.75,7.12l7.41,9.84h-5.82l-7-9.51h-7.49v9.51H263.7Z"/><path class="cls-1" d="M310.66,204.7c3,0,5.25-.6,5.25-3.46,0-2.53-2.06-3.33-5.25-3.33H300.38v6.79ZM310.53,194c3.09,0,4.45-.76,4.45-2.79s-1.36-2.83-4.45-2.83H300.38V194Zm-14.87-9.54h14.57c5.68,0,9.48,1.59,9.48,6.18a5.25,5.25,0,0,1-2.8,5,6.48,6.48,0,0,1,3.73,6c0,4.55-3.63,7-9.51,7H295.66Z"/><polygon class="cls-1" points="328.12 184.45 349.8 184.45 349.8 188.5 332.84 188.5 332.84 194.12 347.44 194.12 347.44 198.18 332.84 198.18 332.84 204.57 350.2 204.57 350.2 208.62 328.12 208.62 328.12 184.45"/><rect class="cls-1" x="358.35" y="184.45" width="4.72" height="24.18"/><polygon class="cls-1" points="372.15 184.45 376.87 184.45 376.87 204.43 394.4 204.43 394.4 208.62 372.15 208.62 372.15 184.45"/></g></symbol><symbol id="logo-moretti-right" viewBox="0 0 400 400"><path d="m8 377.8 3.4-.8 1.2-24.3-3.4-.9v-1.2h9.8l8 18.9 7.2-18 .3-.9h9.5v1.2l-3.3.8 1.1 24.5 3.4.8v1.2h-13.3v-1.2l3.8-.8-.8-23.1-8 20.1-1.6 4h-.9l-1.5-3.9-8.7-19.8-.9 22.7 4.7.9v1.3h-10zm73.7-13.6c0 9.8-7.4 15.7-15.4 15.7-8.1 0-15.2-5.8-15.2-15 0-9.1 7.3-15.2 15.3-15.2 9.1-.1 15.3 6.5 15.3 14.5zm-6.6 1.4c0-7.4-3.8-14.4-9.4-14.4-5.4 0-8.1 5.3-8.1 12.6 0 7.2 3.5 14.6 9.4 14.6 5.4-.1 8.1-5.6 8.1-12.8zm13.1 12.2 3.3-.8v-24.5l-3.3-.8v-1.2l10.9-.1c9.1 0 12.9 2.9 12.9 7.1 0 3.5-2.5 5.8-6.4 7.1v.2l7.8 12.3 2.8.7v1.2h-8.2l-6.5-10.3c-.6-1-1.6-2.6-1.6-2.6h-2.5v10.9l3.3.8v1.2h-12.5zm9.2-13.3h3.4c3.2-.5 5.5-3 5.5-6 0-4.1-3.5-6.9-8.9-6.9zm33.4.6v11.2c.6.7 1.4 1.1 2.6 1.2h6.5l4.6-7.7h1.3l-2 9.3h-22.2v-1.2l3.3-.8v-24.4l-3.3-.9v-1.2h19.3l3.4-.1v8.1h-1.3l-2.6-6.5h-9.6v11.4h5.2l1.4-4.4h1.2v10.2h-1.3l-1.3-4.2zm43.4-14.7 3.2-.2.1 8.6h-1.2l-2.5-6.7h-5.9v24.8l4 .8v1.2h-14.1v-1.2l4.1-.8v-24.8h-5.9l-2.5 6.7h-1.2l.1-8.6 3.2.2zm32.4 0 3.2-.2.1 8.6h-1.2l-2.5-6.7h-5.9v24.8l4 .8v1.2h-14.1v-1.2l4.1-.8v-24.8h-5.9l-2.5 6.7h-1.2l.1-8.6 3.2.2zm9.9 27.4 3.3-.8v-24.4l-3.3-.9v-1.2h12.6v1.2l-3.3.9v24.4l3.3.8v1.2h-12.6zm31.3-12.4c0-9 7.7-15.8 17-15.8 3.8 0 6.7 1 9.2 2.2l.1 7.8h-1.2l-2.8-6.2c-1.7-1.4-3.6-2.3-6.3-2.3-5.2 0-9.1 5-9.1 12.5 0 9.6 4.7 14.6 10.2 14.6 2.5 0 4.1-.9 5.2-1.9l4-6.9h1.3l-1.5 7.9c-3.5 1.6-6.5 2.5-10.4 2.5-10.7.1-15.7-7.2-15.7-14.4zm32.9 12.4 3-.8 10.2-26.8 1.6-.3 1.9-.4 10.4 27.6 2.9.7v1.2h-12.9v-1.2l3.4-.7-2.8-7.7h-9.9l-2.7 7.5 4.9.9v1.2h-10.1v-1.2zm8.7-10.6h8.3l-4.1-11.5zm35.6-1.8v11.6l4.4.6v1.4h-13.7v-1.3l3.3-.8v-24.4l-3.3-.9v-1.2h18.8l3.6-.1v8.1h-1.3l-2.5-6.4h-9.3v11.7h5.4l1.5-4.4h1.2v10.3h-1.2l-1.4-4.2zm29 0v11.6l4.4.6v1.4h-13.7v-1.3l3.3-.8v-24.4l-3.3-.9v-1.2h18.8l3.6-.1v8.1h-1.3l-2.5-6.4h-9.3v11.7h5.4l1.5-4.4h1.2v10.3h-1.2l-1.4-4.2zm29-.3v11.2c.6.7 1.4 1.1 2.6 1.2h6.5l4.6-7.7h1.3l-2 9.3h-22.2v-1.2l3.3-.8v-24.4l-3.3-.9v-1.2h19.3l3.4-.1v8.1h-1.3l-2.6-6.5h-9.6v11.4h5.2l1.4-4.4h1.2v10.2h-1.3l-1.3-4.2z" fill="#231f20"/></symbol><symbol id="logo-moretti" viewBox="0 0 400 400">
<style type="text/css">
	.st0{fill:#231F20;}
</style>
<g>
	<g>
		<path class="st0" d="M5,214.5l3.4-0.8l1.2-24.3l-3.4-0.9v-1.2H16l8,18.9l7.2-18l0.3-0.9H41v1.2l-3.3,0.8l1.1,24.5l3.4,0.8v1.2
			H28.9v-1.2l3.8-0.8l-0.8-23.1l-8,20.1l-1.6,4h-0.9l-1.5-3.9l-8.7-19.8l-0.9,22.7l4.7,0.9v1.3H5V214.5z M78.7,200.9
			c0,9.8-7.4,15.7-15.4,15.7c-8.1,0-15.2-5.8-15.2-15c0-9.1,7.3-15.2,15.3-15.2C72.5,186.3,78.7,192.9,78.7,200.9z M72.1,202.3
			c0-7.4-3.8-14.4-9.4-14.4c-5.4,0-8.1,5.3-8.1,12.6c0,7.2,3.5,14.6,9.4,14.6C69.4,215,72.1,209.5,72.1,202.3z M85.2,214.5l3.3-0.8
			v-24.5l-3.3-0.8v-1.2l10.9-0.1c9.1,0,12.9,2.9,12.9,7.1c0,3.5-2.5,5.8-6.4,7.1v0.2l7.8,12.3l2.8,0.7v1.2H105l-6.5-10.3
			c-0.6-1-1.6-2.6-1.6-2.6h-2.5v10.9l3.3,0.8v1.2H85.2V214.5z M94.4,201.2h3.4c3.2-0.5,5.5-3,5.5-6c0-4.1-3.5-6.9-8.9-6.9V201.2z
			 M127.8,201.8V213c0.6,0.7,1.4,1.1,2.6,1.2h6.5l4.6-7.7h1.3l-2,9.3h-22.2v-1.2l3.3-0.8v-24.4l-3.3-0.9v-1.2h19.3l3.4-0.1v8.1H140
			l-2.6-6.5h-9.6v11.4h5.2l1.4-4.4h1.2V206h-1.3l-1.3-4.2H127.8z M171.2,187.1l3.2-0.2l0.1,8.6h-1.2l-2.5-6.7h-5.9v24.8l4,0.8v1.2
			h-14.1v-1.2l4.1-0.8v-24.8H153l-2.5,6.7h-1.2l0.1-8.6l3.2,0.2H171.2z M203.6,187.1l3.2-0.2l0.1,8.6h-1.2l-2.5-6.7h-5.9v24.8l4,0.8
			v1.2h-14.1v-1.2l4.1-0.8v-24.8h-5.9l-2.5,6.7h-1.2l0.1-8.6l3.2,0.2H203.6z M213.5,214.5l3.3-0.8v-24.4l-3.3-0.9v-1.2h12.6v1.2
			l-3.3,0.9v24.4l3.3,0.8v1.2h-12.6V214.5z M244.8,202.1c0-9,7.7-15.8,17-15.8c3.8,0,6.7,1,9.2,2.2l0.1,7.8h-1.2l-2.8-6.2
			c-1.7-1.4-3.6-2.3-6.3-2.3c-5.2,0-9.1,5-9.1,12.5c0,9.6,4.7,14.6,10.2,14.6c2.5,0,4.1-0.9,5.2-1.9l4-6.9h1.3l-1.5,7.9
			c-3.5,1.6-6.5,2.5-10.4,2.5C249.8,216.6,244.8,209.3,244.8,202.1z M277.7,214.5l3-0.8l10.2-26.8l1.6-0.3l1.9-0.4l10.4,27.6
			l2.9,0.7v1.2h-12.9v-1.2l3.4-0.7l-2.8-7.7h-9.9l-2.7,7.5l4.9,0.9v1.2h-10.1v-1.2H277.7z M286.4,203.9h8.3l-4.1-11.5L286.4,203.9z
			 M322,202.1v11.6l4.4,0.6v1.4h-13.7v-1.3l3.3-0.8v-24.4l-3.3-0.9v-1.2h18.8l3.6-0.1v8.1h-1.3l-2.5-6.4H322v11.7h5.4l1.5-4.4h1.2
			v10.3h-1.2l-1.4-4.2L322,202.1L322,202.1z M351,202.1v11.6l4.4,0.6v1.4h-13.7v-1.3l3.3-0.8v-24.4l-3.3-0.9v-1.2h18.8l3.6-0.1v8.1
			h-1.3l-2.5-6.4H351v11.7h5.4l1.5-4.4h1.2v10.3h-1.2l-1.4-4.2L351,202.1L351,202.1z M380,201.8V213c0.6,0.7,1.4,1.1,2.6,1.2h6.5
			l4.6-7.7h1.3l-2,9.3h-22.2v-1.2l3.3-0.8v-24.4l-3.3-0.9v-1.2h19.3l3.4-0.1v8.1h-1.3l-2.6-6.5H380v11.4h5.2l1.4-4.4h1.2V206h-1.3
			l-1.3-4.2H380z"/>
	</g>
</g>
<g id="Layer_3">
</g>
</symbol><symbol id="logo-must-right" viewBox="0 0 400 400"><title>logos</title><g id="Layer_2" data-name="Layer 2"><rect class="cls-1" x="239" y="316.98" width="7.12" height="62.15"/><rect class="cls-1" x="274.23" y="316.98" width="6.9" height="62.15"/><polygon class="cls-1" points="268.89 316.98 260.07 371.44 251.28 316.98 247.86 316.98 247.86 333.51 255.15 379.13 265.25 379.13 272.5 333.54 272.5 316.98 268.89 316.98"/><path class="cls-1" d="M299.47,362.34V317.07h-8.1v42.37c0,9.32.18,11.08,1.46,13.8,2.18,4.55,6.87,6.6,13.35,6.76v-6.71c-6.7-.49-6.71-5.84-6.71-11"/><path class="cls-1" d="M314.58,317.07s0,46.24-.09,48.7c-.09,2.81-.27,7.28-6.6,7.54V380c3.66-.11,10.53-1.07,13.24-7.2,1.45-3.16,1.55-6.24,1.55-13.89V317.07Z"/><path class="cls-1" d="M354,327.7c.18,1.15.18,1.76.36,7.65h7c0-9.14,0-11.25-1.82-14.15-2.89-4.54-8.37-5.09-11.66-5.1v6.61c5.15.24,5.93,3.89,6.11,5"/><path class="cls-1" d="M338.93,366c-.09-1.14-.09-1.84-.09-8.35h-7.65v6.86c0,4.66.91,9.32,5,12.39,1.21,1,4.25,2.89,9.88,3.07v-6.6c-6.54-.31-7.06-5.83-7.15-7.37"/><path class="cls-1" d="M362.54,365.15c0-7.12-2.36-10.28-7.64-15.73l-8.1-8.18c-4.55-4.66-6.28-6.5-6.28-11.16,0-1.66,0-6.72,5.61-7.32v-6.61c-13.34.75-13.34,11.15-13.34,14.45,0,5.63,1.27,9.41,7.37,15.48l8.73,8.61c3.64,3.61,5.92,6.07,5.92,11,0,5.92-4.25,7.4-7,7.68V380c5.12-.2,14.75-2.35,14.75-14.85"/><rect class="cls-1" x="366.7" y="317.07" width="32.3" height="6.94"/><rect class="cls-1" x="378.89" y="325.73" width="7.92" height="53.41"/></g></symbol><symbol id="logo-must" viewBox="0 0 400 400">
<style type="text/css">
	.st0{fill:#231F20;}
</style>
<title>logos</title>
<g id="Layer_2">
	<rect x="120" y="169.4" class="st0" width="7.1" height="62.1"/>
	<rect x="155.2" y="169.4" class="st0" width="6.9" height="62.1"/>
	<polygon class="st0" points="149.9,169.4 141.1,223.9 132.3,169.4 128.9,169.4 128.9,186 136.1,231.6 146.2,231.6 153.5,186 
		153.5,169.4 	"/>
	<path class="st0" d="M180.5,214.8v-45.3h-8.1v42.4c0,9.3,0.2,11.1,1.5,13.8c2.2,4.6,6.9,6.6,13.4,6.8v-6.7
		C180.5,225.2,180.5,219.9,180.5,214.8"/>
	<path class="st0" d="M195.6,169.5c0,0,0,46.2-0.1,48.7c-0.1,2.8-0.3,7.3-6.6,7.5v6.7c3.7-0.1,10.5-1.1,13.2-7.2
		c1.4-3.2,1.6-6.2,1.6-13.9v-41.8H195.6z"/>
	<path class="st0" d="M235,180.2c0.2,1.1,0.2,1.8,0.4,7.6h7c0-9.1,0-11.2-1.8-14.1c-2.9-4.5-8.4-5.1-11.7-5.1v6.6
		C234,175.4,234.8,179.1,235,180.2"/>
	<path class="st0" d="M219.9,218.5c-0.1-1.1-0.1-1.9-0.1-8.4h-7.6v6.9c0,4.7,0.9,9.3,5,12.4c1.2,1,4.2,2.9,9.9,3.1v-6.6
		C220.5,225.5,220,220,219.9,218.5"/>
	<path class="st0" d="M243.5,217.6c0-7.1-2.4-10.3-7.6-15.7l-8.1-8.2c-4.6-4.7-6.3-6.5-6.3-11.2c0-1.7,0-6.7,5.6-7.3v-6.6
		c-13.3,0.8-13.3,11.2-13.3,14.5c0,5.6,1.3,9.4,7.4,15.5l8.7,8.6c3.6,3.6,5.9,6.1,5.9,11c0,5.9-4.2,7.4-7,7.7v6.6
		C233.9,232.2,243.6,230.1,243.5,217.6"/>
	<rect x="247.7" y="169.5" class="st0" width="32.3" height="6.9"/>
	<rect x="259.9" y="178.2" class="st0" width="7.9" height="53.4"/>
</g>
</symbol>


<symbol id="logo-small" viewBox="0 0 746 77">
<path d="M213.033332,1.7 C219.666665,1.7 225.299999,3.25833333 229.933332,6.375 C234.566665,9.49166667 237.899999,13.7 239.933332,19 L239.933332,19 L235.833332,20.7 L235.636393,20.2109056 C233.82721,15.8429209 231.026189,12.3892857 227.233332,9.85 C223.299999,7.21666667 218.566665,5.9 213.033332,5.9 C206.933332,5.9 201.808332,7.31666667 197.658332,10.15 C193.508332,12.9833333 190.399999,16.9416667 188.333332,22.025 C186.266665,27.1083333 185.233332,33 185.233332,39.7 C185.233332,46.1666667 186.291665,51.8583333 188.408332,56.775 C190.524999,61.6916667 193.666665,65.525 197.833332,68.275 C201.999999,71.025 207.066665,72.4 213.033332,72.4 C221.899999,72.4 228.433332,69.825 232.633332,64.675 C236.833332,59.525 238.933332,52.4 238.933332,43.3 L238.933332,43.3 L219.733332,43.3 L219.733332,39.1 L243.233332,39.1 L243.280207,39.5828125 C243.38229,40.7276042 243.433332,42 243.433332,43.4 C243.433332,49.8666667 242.349999,55.5916667 240.183332,60.575 C238.016665,65.5583333 234.666665,69.475 230.133332,72.325 C225.599999,75.175 219.899999,76.6 213.033332,76.6 C206.033332,76.6 200.116665,75.025 195.283332,71.875 C190.449999,68.725 186.816665,64.3333333 184.383332,58.7 C181.949999,53.0666667 180.733332,46.5333333 180.733332,39.1 C180.733332,31.6666667 181.949999,25.1416667 184.383332,19.525 C186.816665,13.9083333 190.449999,9.53333333 195.283332,6.4 C200.116665,3.26666667 206.033332,1.7 213.033332,1.7 Z M4.2,3.1 L4.2,70.9 L40,70.9 L40,75.1 L5.68434189e-14,75.1 L5.68434189e-14,3.1 L4.2,3.1 Z M92.644444,3.1 L118.844444,75.1 L114.344444,75.1 L107.544444,56.4 L73.244444,56.4 L66.444444,75.1 L61.944444,75.1 L88.144444,3.1 L92.644444,3.1 Z M295.577776,3.1 L321.777776,75.1 L317.277776,75.1 L310.477776,56.4 L276.177776,56.4 L269.377776,75.1 L264.877776,75.1 L291.077776,3.1 L295.577776,3.1 Z M375.72222,3.1 L376.354873,3.10816327 C377.628342,3.14081633 378.950791,3.27142857 380.32222,3.5 C383.72222,4.03333333 386.705553,5.29166667 389.27222,7.275 C391.838887,9.25833333 393.82222,11.7583333 395.22222,14.775 C396.62222,17.7916667 397.32222,21.1 397.32222,24.7 C397.32222,29.3333333 396.180553,33.4583333 393.89722,37.075 C391.613887,40.6916667 388.488887,43.25 384.52222,44.75 L384.52222,44.75 L399.32222,75.1 L394.32222,75.1 L380.37222,46.3 L353.42222,46.3 L353.42222,75.1 L349.22222,75.1 L349.22222,3.1 L375.72222,3.1 Z M454.466664,3.1 L480.666664,75.1 L476.166664,75.1 L469.366664,56.4 L435.066664,56.4 L428.266664,75.1 L423.766664,75.1 L449.966664,3.1 L454.466664,3.1 Z M512.311108,3.1 L556.111108,67.6 L556.111108,3.1 L560.311108,3.1 L560.311108,75.1 L556.111108,75.1 L512.311108,10.5 L512.311108,75.1 L508.111108,75.1 L508.111108,3.1 L512.311108,3.1 Z M643.755552,3.1 L643.755552,7.3 L617.355552,7.3 L617.355552,75.1 L613.155552,75.1 L613.155552,7.3 L586.755552,7.3 L586.755552,3.1 L643.755552,3.1 Z M693.899996,3.1 L720.099996,75.1 L715.599996,75.1 L708.799996,56.4 L674.499996,56.4 L667.699996,75.1 L663.199996,75.1 L689.399996,3.1 L693.899996,3.1 Z M90.344444,9.15 L74.694444,52.4 L106.094444,52.4 L90.344444,9.15 Z M293.277776,9.15 L277.627776,52.4 L309.027776,52.4 L293.277776,9.15 Z M452.166664,9.15 L436.516664,52.4 L467.916664,52.4 L452.166664,9.15 Z M691.599996,9.15 L675.949996,52.4 L707.349996,52.4 L691.599996,9.15 Z M375.72222,7.3 L353.42222,7.3 L353.42222,42.1 L375.72222,42.1 C377.22222,42.1 378.688887,41.9666667 380.12222,41.7 C382.82222,41.1666667 385.12222,40.0833333 387.02222,38.45 C388.92222,36.8166667 390.363887,34.8 391.34722,32.4 C392.330553,30 392.82222,27.4333333 392.82222,24.7 C392.82222,21.9666667 392.330553,19.4 391.34722,17 C390.363887,14.6 388.92222,12.5833333 387.02222,10.95 C385.12222,9.31666667 382.82222,8.23333333 380.12222,7.7 C378.688887,7.43333333 377.22222,7.3 375.72222,7.3 L375.72222,7.3 Z M733.92222,0 C736.02222,0 737.95972,0.520833333 739.73472,1.5625 C741.50972,2.60416667 742.918053,4.0125 743.95972,5.7875 C745.001387,7.5625 745.52222,9.5 745.52222,11.6 C745.52222,13.7166667 745.001387,15.6666667 743.95972,17.45 C742.918053,19.2333333 741.50972,20.6458333 739.73472,21.6875 C737.95972,22.7291667 736.02222,23.25 733.92222,23.25 C731.805553,23.25 729.855553,22.7291667 728.07222,21.6875 C726.288887,20.6458333 724.876387,19.2333333 723.83472,17.45 C722.793053,15.6666667 722.27222,13.7166667 722.27222,11.6 C722.27222,9.5 722.793053,7.5625 723.83472,5.7875 C724.876387,4.0125 726.288887,2.60416667 728.07222,1.5625 C729.855553,0.520833333 731.805553,0 733.92222,0 Z M733.92222,2.1 C732.188887,2.1 730.588887,2.525 729.12222,3.375 C727.655553,4.225 726.49722,5.37916667 725.64722,6.8375 C724.79722,8.29583333 724.37222,9.88333333 724.37222,11.6 C724.37222,13.3333333 724.79722,14.9333333 725.64722,16.4 C726.49722,17.8666667 727.655553,19.025 729.12222,19.875 C730.588887,20.725 732.188887,21.15 733.92222,21.15 C735.638887,21.15 737.226387,20.725 738.68472,19.875 C740.143053,19.025 741.29722,17.8666667 742.14722,16.4 C742.99722,14.9333333 743.42222,13.3333333 743.42222,11.6 C743.42222,9.88333333 742.99722,8.29583333 742.14722,6.8375 C741.29722,5.37916667 740.143053,4.225 738.68472,3.375 C737.226387,2.525 735.638887,2.1 733.92222,2.1 Z M734.97222,5.75 L735.208548,5.75800781 C735.757246,5.7953776 736.286803,5.96354167 736.79722,6.2625 C737.380553,6.60416667 737.84722,7.05833333 738.19722,7.625 C738.54722,8.19166667 738.72222,8.8 738.72222,9.45 C738.72222,10.1166667 738.52222,10.7666667 738.12222,11.4 C737.72222,12.0333333 737.188887,12.5 736.52222,12.8 L736.52222,12.8 L738.72222,17.25 L736.67222,17.25 L734.67222,13.15 L731.67222,13.15 L731.67222,17.25 L729.87222,17.25 L729.87222,5.75 L734.97222,5.75 Z M734.92222,7.45 L731.67222,7.45 L731.67222,11.45 L734.92222,11.45 C735.438887,11.45 735.893053,11.25 736.28472,10.85 C736.676387,10.45 736.87222,9.98333333 736.87222,9.45 C736.87222,8.88333333 736.663887,8.40833333 736.24722,8.025 C735.830553,7.64166667 735.388887,7.45 734.92222,7.45 L734.92222,7.45 Z"></path></symbol>

<symbol id="logo-velvet-right" viewBox="0 0 400 400"><title>logos</title><g id="Layer_2" data-name="Layer 2"><path class="cls-1" d="M398.93,372a11.52,11.52,0,0,1-4.19.79c-5.17,0-7.16-3.06-7.16-11.28V345h10v-1.13h-10v-14.4l-19.65,15.46V345h5.46V365.1c0,9.44,3.55,14.19,11.78,14.19A16,16,0,0,0,399,372.06Zm-51.85-27.09c2.56-.28,7.09,4.9,7.16,11.42a14.23,14.23,0,0,1-2.76,9c-4.33-4.54-7.31-10.64-7.31-16.24,0-2.56,1.14-4.19,2.91-4.19m20.78,27.24a9.23,9.23,0,0,1-2.05.21c-4.54,0-9.86-2.63-13.91-6.6,8.44-3.12,13.05-8.29,13.05-14.25,0-5.18-4.68-9.08-11.27-9.08-11.21,0-18.3,8.58-18.3,18.94,0,10.78,8.3,17.94,18.23,17.94,6.45,0,11.27-2.55,14.32-7.09ZM329.14,347.3l-6.88,19.08-6.95-19.08,4.75-3.47H295.3l4.76,3.47,15,32.34h1.85l15.81-32.34,4.76-3.47H324.17Z"/><polygon class="cls-1" points="295.2 378.58 295.2 377.45 291.66 377.45 291.66 325.39 273.43 331.77 277.47 335.25 277.47 377.45 273.93 377.45 273.93 378.58 295.2 378.58"/><polygon class="cls-1" points="238.25 331.34 228.74 363.47 214.77 331.34 221.08 327.51 192.07 327.51 197.68 331.34 219.52 380 223.21 380 243.64 331.34 249.95 327.51 229.81 327.51 238.25 331.34"/><path class="cls-1" d="M251,344.89c2.55-.28,7.09,4.9,7.16,11.42a14.18,14.18,0,0,1-2.77,9c-4.32-4.54-7.3-10.64-7.3-16.24,0-2.56,1.13-4.19,2.91-4.19m20.78,27.24a9.32,9.32,0,0,1-2.06.21c-4.54,0-9.86-2.62-13.9-6.6,8.44-3.12,13-8.3,13-14.25,0-5.18-4.68-9.08-11.28-9.08-11.2,0-18.3,8.58-18.3,18.94,0,10.78,8.3,17.94,18.23,17.94,6.46,0,11.28-2.55,14.33-7.09Z"/></g></symbol><symbol id="logo-velvet" viewBox="0 0 400 400"><title>logos</title><g id="Layer_2" data-name="Layer 2"><path class="cls-1" d="M301.39,213.17a11.47,11.47,0,0,1-4.18.78c-5.18,0-7.17-3-7.17-11.27V186.15h10V185H290V170.62L270.4,186.08v.07h5.46v20.14c0,9.44,3.54,14.19,11.77,14.19a16,16,0,0,0,13.83-7.24Zm-51.85-27.09c2.56-.29,7.1,4.89,7.17,11.42a14.17,14.17,0,0,1-2.77,9c-4.33-4.53-7.3-10.63-7.3-16.24,0-2.55,1.13-4.18,2.9-4.18m20.78,27.23a8.59,8.59,0,0,1-2.05.22c-4.54,0-9.86-2.63-13.9-6.6,8.44-3.12,13.05-8.3,13.05-14.26,0-5.17-4.68-9.07-11.28-9.07-11.21,0-18.3,8.58-18.3,18.93,0,10.78,8.3,17.95,18.23,17.95,6.45,0,11.28-2.56,14.33-7.09ZM231.6,188.49l-6.88,19.08-6.95-19.08,4.75-3.48H197.77l4.75,3.48,15,32.34h1.84l15.82-32.34L240,185H226.63Z"/><polygon class="cls-1" points="197.66 219.77 197.66 218.63 194.12 218.63 194.12 166.57 175.89 172.96 179.93 176.43 179.93 218.63 176.39 218.63 176.39 219.77 197.66 219.77"/><polygon class="cls-1" points="140.71 172.53 131.21 204.66 117.23 172.53 123.55 168.7 94.54 168.7 100.14 172.53 121.98 221.19 125.67 221.19 146.1 172.53 152.41 168.7 132.27 168.7 140.71 172.53"/><path class="cls-1" d="M153.48,186.08c2.55-.29,7.09,4.89,7.16,11.42a14.27,14.27,0,0,1-2.76,9c-4.33-4.54-7.31-10.64-7.31-16.25,0-2.55,1.13-4.18,2.91-4.18m20.78,27.23a8.74,8.74,0,0,1-2.06.22c-4.54,0-9.86-2.63-13.9-6.6,8.44-3.12,13-8.3,13-14.26,0-5.17-4.68-9.07-11.28-9.07-11.2,0-18.29,8.58-18.29,18.93,0,10.78,8.29,17.95,18.22,17.95,6.46,0,11.28-2.56,14.33-7.1Z"/></g></symbol>



<symbol id="logo" viewBox="0 0 757 78">
<path d="M216.175953,1.72507803 C222.90714,1.72507803 228.623575,3.30639955 233.325258,6.4690426 C238.026941,9.63168565 241.409447,13.9020994 243.472776,19.2802838 L243.472776,19.2802838 L239.312294,21.0053619 L239.119479,20.5260394 C237.283836,16.0855854 234.439152,12.5753406 230.585428,9.99530504 C226.594071,7.32312535 221.790913,5.9870355 216.175953,5.9870355 C209.985967,5.9870355 204.785364,7.42460053 200.574144,10.2997306 C196.362924,13.1748606 193.208738,17.1915864 191.111584,22.349908 C189.01443,27.5082295 187.965853,33.4868087 187.965853,40.2856457 C187.965853,46.8477072 189.039799,52.6233361 191.18769,57.6125323 C193.335582,62.6017286 196.523593,66.4916104 200.751726,69.2821778 C204.979858,72.0727452 210.121267,73.4680289 216.175953,73.4680289 C225.173419,73.4680289 231.80313,70.8550431 236.065088,65.6290714 C240.327045,60.4030997 242.458024,53.1729933 242.458024,43.9387521 L242.458024,43.9387521 L222.97479,43.9387521 L222.97479,39.6767946 L246.821457,39.6767946 L246.869023,40.1667295 C246.972612,41.3284088 247.024407,42.6195748 247.024407,44.0402273 C247.024407,50.6022888 245.925093,56.4117427 243.726464,61.4685891 C241.527835,66.5254355 238.128416,70.4998799 233.528208,73.3919225 C228.928,76.2839651 223.143915,77.7299864 216.175953,77.7299864 C209.07269,77.7299864 203.068742,76.1317523 198.164109,72.9352842 C193.259475,69.7388161 189.572544,65.2823645 187.103314,59.5659295 C184.634085,53.8494945 183.39947,47.2197828 183.39947,39.6767946 C183.39947,32.1338064 184.634085,25.512551 187.103314,19.8130285 C189.572544,14.113506 193.259475,9.67396697 198.164109,6.49441139 C203.068742,3.31485582 209.07269,1.72507803 216.175953,1.72507803 Z M4.26195748,3.14573052 L4.26195748,71.9459012 L40.5900712,71.9459012 L40.5900712,76.2078587 L5.68434189e-14,76.2078587 L5.68434189e-14,3.14573052 L4.26195748,3.14573052 Z M94.0111145,3.14573052 L120.597611,76.2078587 L116.031228,76.2078587 L109.130916,57.2320004 L74.3249299,57.2320004 L67.4246178,76.2078587 L62.8582348,76.2078587 L89.4447315,3.14573052 L94.0111145,3.14573052 Z M299.938074,3.14573052 L326.524571,76.2078587 L321.958188,76.2078587 L315.057876,57.2320004 L280.25189,57.2320004 L273.351578,76.2078587 L268.785195,76.2078587 L295.371691,3.14573052 L299.938074,3.14573052 Z M381.264792,3.14573052 L381.826076,3.15207272 C383.143139,3.18166964 384.511997,3.31485582 385.93265,3.55163123 C389.382806,4.09283218 392.410149,5.36972817 395.014678,7.3823192 C397.619208,9.39491023 399.631799,11.9317897 401.052451,14.9929576 C402.473104,18.0541254 403.18343,21.4112626 403.18343,25.064369 C403.18343,29.7660522 402.024922,33.9519033 399.707905,37.6219223 C397.390889,41.2919412 394.219789,43.8880145 390.194607,45.4101422 L390.194607,45.4101422 L405.212934,76.2078587 L400.139175,76.2078587 L385.983387,46.9830074 L358.635827,46.9830074 L358.635827,76.2078587 L354.373869,76.2078587 L354.373869,3.14573052 L381.264792,3.14573052 Z M461.170856,3.14573052 L487.757353,76.2078587 L483.19097,76.2078587 L476.290658,57.2320004 L441.484672,57.2320004 L434.58436,76.2078587 L430.017977,76.2078587 L456.604473,3.14573052 L461.170856,3.14573052 Z M519.868609,3.14573052 L564.314737,68.5972203 L564.314737,3.14573052 L568.576694,3.14573052 L568.576694,76.2078587 L564.314737,76.2078587 L519.868609,10.6548937 L519.868609,76.2078587 L515.606651,76.2078587 L515.606651,3.14573052 L519.868609,3.14573052 Z M653.252092,3.14573052 L653.252092,7.407688 L626.462645,7.407688 L626.462645,76.2078587 L622.200688,76.2078587 L622.200688,7.407688 L595.411241,7.407688 L595.411241,3.14573052 L653.252092,3.14573052 Z M704.136256,3.14573052 L730.722753,76.2078587 L726.15637,76.2078587 L719.256058,57.2320004 L684.450072,57.2320004 L677.54976,76.2078587 L672.983377,76.2078587 L699.569873,3.14573052 L704.136256,3.14573052 Z M91.6771854,9.28497879 L75.79632,53.1729933 L107.659526,53.1729933 L91.6771854,9.28497879 Z M297.604145,9.28497879 L281.72328,53.1729933 L313.586486,53.1729933 L297.604145,9.28497879 Z M458.836927,9.28497879 L442.956062,53.1729933 L474.819268,53.1729933 L458.836927,9.28497879 Z M701.802327,9.28497879 L685.921462,53.1729933 L717.784668,53.1729933 L701.802327,9.28497879 Z M381.264792,7.407688 L358.635827,7.407688 L358.635827,42.72105 L381.264792,42.72105 C382.786919,42.72105 384.275222,42.5857497 385.729699,42.3151492 C388.469529,41.7739483 390.803458,40.6746339 392.731487,39.017206 C394.659515,37.359778 396.122449,35.313362 397.120288,32.8779577 C398.118127,30.4425534 398.617047,27.8380238 398.617047,25.064369 C398.617047,22.2907141 398.118127,19.6861845 397.120288,17.2507803 C396.122449,14.815376 394.659515,12.7689599 392.731487,11.111532 C390.803458,9.45410409 388.469529,8.35478966 385.729699,7.81358871 C384.275222,7.54298823 382.786919,7.407688 381.264792,7.407688 L381.264792,7.407688 Z M744.748879,0 C746.879858,0 748.84594,0.528516552 750.647124,1.58554966 C752.448308,2.64258276 753.877417,4.07169152 754.93445,5.87287593 C755.991483,7.67406034 756.52,9.64014191 756.52,11.7711207 C756.52,13.9190119 755.991483,15.8977779 754.93445,17.7074186 C753.877417,19.5170592 752.448308,20.9503961 750.647124,22.0074292 C748.84594,23.0644623 746.879858,23.5929789 744.748879,23.5929789 C742.600988,23.5929789 740.622222,23.0644623 738.812581,22.0074292 C737.002941,20.9503961 735.569604,19.5170592 734.512571,17.7074186 C733.455538,15.8977779 732.927021,13.9190119 732.927021,11.7711207 C732.927021,9.64014191 733.455538,7.67406034 734.512571,5.87287593 C735.569604,4.07169152 737.002941,2.64258276 738.812581,1.58554966 C740.622222,0.528516552 742.600988,0 744.748879,0 Z M744.748879,2.13097874 C742.989976,2.13097874 741.366373,2.56224825 739.878071,3.42478726 C738.389768,4.28732627 737.214347,5.45851895 736.351808,6.9383653 C735.489269,8.41821164 735.058,10.0291301 735.058,11.7711207 C735.058,13.5300237 735.489269,15.1536266 736.351808,16.6419292 C737.214347,18.1302318 738.389768,19.3056526 739.878071,20.1681916 C741.366373,21.0307306 742.989976,21.4620002 744.748879,21.4620002 C746.49087,21.4620002 748.101788,21.0307306 749.581635,20.1681916 C751.061481,19.3056526 752.232674,18.1302318 753.095213,16.6419292 C753.957752,15.1536266 754.389021,13.5300237 754.389021,11.7711207 C754.389021,10.0291301 753.957752,8.41821164 753.095213,6.9383653 C752.232674,5.45851895 751.061481,4.28732627 749.581635,3.42478726 C748.101788,2.56224825 746.49087,2.13097874 744.748879,2.13097874 Z M745.814369,5.83482274 L746.054183,5.84294868 C746.610975,5.88086974 747.148344,6.05151452 747.666291,6.35488302 C748.258229,6.70158988 748.73178,7.16245632 749.086943,7.73748232 C749.442106,8.31250833 749.619688,8.92981567 749.619688,9.58940432 C749.619688,10.2659055 749.416738,10.9254942 749.010837,11.5681703 C748.604936,12.2108464 748.063735,12.6843973 747.387234,12.9888228 L747.387234,12.9888228 L749.619688,17.5044682 L747.539447,17.5044682 L745.509943,13.3439859 L742.465688,13.3439859 L742.465688,17.5044682 L740.639135,17.5044682 L740.639135,5.83482274 L745.814369,5.83482274 Z M745.763631,7.55990076 L742.465688,7.55990076 L742.465688,11.6189079 L745.763631,11.6189079 C746.28792,11.6189079 746.748786,11.4159575 747.14623,11.0100568 C747.543675,10.6041561 747.742397,10.1306053 747.742397,9.58940432 C747.742397,9.01437832 747.53099,8.53237122 747.108177,8.14338304 C746.685364,7.75439485 746.237182,7.55990076 745.763631,7.55990076 L745.763631,7.55990076 Z"></path>
</symbol><symbol id="upload" viewBox="0 0 42.6 37.4">
<rect x="20.3" y="3.3" width="2" height="27"/>
<path d="M12.6,15.9l-1.4-1.4C16.2,9.7,18.9,4,20.3,0h1.9c1.4,3.9,4.1,9.6,8.9,14.3l-1.4,1.4c-4.2-4-6.8-8.8-8.4-12.6
	C19.6,7,16.9,11.8,12.6,15.9z"/>
<polygon points="41.6,37.4 1,37.4 0,36.4 0,25.2 2,25.2 2,35.4 40.6,35.4 40.6,25.2 42.6,25.2 42.6,36.4 "/>
</symbol></svg>