<?xml version="1.0" encoding="UTF-8"?>
<svg width="540px" height="810px" viewBox="0 0 540 810" version="1.1" xmlns="http://www.w3.org/2000/svg" xmlns:xlink="http://www.w3.org/1999/xlink">
    <!-- Generator: Sketch 64 (93537) - https://sketch.com -->
    <title>introducing_contrabean</title>
    <desc>Created with Sketch.</desc>
    <g id="Page-1" stroke="none" stroke-width="1" fill="none" fill-rule="evenodd">
        <g id="introducing_contrabean">
            <rect id="Rectangle" stroke="#979797" fill="#C4C6C8" x="0.5" y="0.5" width="539" height="809"></rect>
            <path d="M192.240408,328 L192.240408,313.908203 L191.752127,313.908203 L191.752127,328 L192.240408,328 Z M198.839454,328 L198.839454,314.728516 L198.878516,314.728516 L208.321875,328 L208.771094,328 L208.771094,313.908203 L208.282813,313.908203 L208.282813,327.072266 L208.24375,327.072266 L198.888282,313.908203 L198.351172,313.908203 L198.351172,328 L198.839454,328 Z M219.36428,328 L219.36428,314.367188 L224.442405,314.367188 L224.442405,313.908203 L213.797874,313.908203 L213.797874,314.367188 L218.875999,314.367188 L218.875999,328 L219.36428,328 Z M229.957465,328 L229.957465,321.847656 L233.824653,321.847656 C234.019965,321.847656 234.303169,321.837891 234.469184,321.828125 L238.141059,328 L238.707465,328 L234.976997,321.75 C237.105903,321.378906 238.365669,319.933594 238.365669,317.882812 C238.365669,315.412109 236.646919,313.908203 233.834419,313.908203 L229.469184,313.908203 L229.469184,328 L229.957465,328 Z M233.824653,321.398438 L229.957465,321.398438 L229.957465,314.367188 L233.824653,314.367188 C236.344184,314.367188 237.877387,315.666016 237.877387,317.882812 C237.877387,320.060547 236.344184,321.398438 233.824653,321.398438 Z M249.74987,328.195312 C253.548698,328.195312 255.960807,325.392578 255.960807,320.949219 C255.960807,316.525391 253.538932,313.712891 249.74987,313.712891 C245.951042,313.712891 243.538932,316.525391 243.538932,320.949219 C243.538932,325.392578 245.941276,328.195312 249.74987,328.195312 Z M249.74987,327.736328 C246.253776,327.736328 244.027214,325.089844 244.027214,320.949219 C244.027214,316.808594 246.253776,314.171875 249.74987,314.171875 C253.236198,314.171875 255.472526,316.808594 255.472526,320.949219 C255.472526,325.089844 253.236198,327.736328 249.74987,327.736328 Z M265.723915,328 C270.02079,328 272.462196,325.451172 272.462196,320.949219 C272.462196,316.457031 270.02079,313.908203 265.723915,313.908203 L261.475868,313.908203 L261.475868,328 L265.723915,328 Z M265.714149,327.541016 L261.973915,327.541016 L261.973915,314.367188 L265.714149,314.367188 C269.727821,314.367188 271.973915,316.730469 271.973915,320.949219 C271.973915,325.177734 269.737587,327.541016 265.714149,327.541016 Z M283.143273,328.195312 C286.317101,328.195312 288.319054,326.212891 288.319054,323.126953 L288.319054,313.908203 L287.830773,313.908203 L287.830773,323.117188 C287.830773,325.958984 286.014366,327.736328 283.143273,327.736328 C280.281944,327.736328 278.465538,325.958984 278.465538,323.117188 L278.465538,313.908203 L277.977257,313.908203 L277.977257,323.126953 C277.977257,326.212891 279.97921,328.195312 283.143273,328.195312 Z M299.976693,328.195312 C302.916146,328.195312 305.201302,326.349609 305.425911,323.703125 L304.947396,323.703125 C304.713021,326.115234 302.584114,327.736328 299.976693,327.736328 C296.548958,327.736328 294.322396,325.080078 294.322396,320.851562 C294.322396,316.740234 296.509896,314.171875 299.976693,314.171875 C302.525521,314.171875 304.693489,316.046875 304.947396,318.439453 L305.425911,318.439453 C305.181771,315.792969 302.779427,313.712891 299.976693,313.712891 C296.207161,313.712891 293.834114,316.466797 293.834114,320.851562 C293.834114,325.333984 296.236458,328.195312 299.976693,328.195312 Z M311.331597,328 L311.331597,313.908203 L310.843316,313.908203 L310.843316,328 L311.331597,328 Z M317.930642,328 L317.930642,314.728516 L317.969705,314.728516 L327.413064,328 L327.862283,328 L327.862283,313.908203 L327.374001,313.908203 L327.374001,327.072266 L327.334939,327.072266 L317.97947,313.908203 L317.442361,313.908203 L317.442361,328 L317.930642,328 Z M339.451562,328.195312 C342.928125,328.195312 345.057031,326.027344 345.057031,322.492188 L345.057031,321.085938 L339.392968,321.085938 L339.392968,321.535156 L344.578515,321.535156 L344.578515,322.511719 C344.578515,325.753906 342.635156,327.736328 339.451562,327.736328 C336.141015,327.736328 333.865625,324.943359 333.865625,320.861328 C333.865625,316.837891 336.092187,314.171875 339.451562,314.171875 C341.941796,314.171875 343.933984,315.646484 344.480859,317.882812 L344.959375,317.882812 C344.441796,315.392578 342.225,313.712891 339.451562,313.712891 C335.808984,313.712891 333.377343,316.574219 333.377343,320.861328 C333.377343,325.207031 335.857812,328.195312 339.451562,328.195312 Z" id="INTRODUCING" fill="#000000" fill-rule="nonzero"></path>
            <path d="M75.2855265,492 L75.2855265,478.367188 L80.3636515,478.367188 L80.3636515,477.908203 L69.7191202,477.908203 L69.7191202,478.367188 L74.7972452,478.367188 L74.7972452,492 L75.2855265,492 Z M85.8787121,492 L85.8787121,484.988281 L95.1365246,484.988281 L95.1365246,492 L95.6248059,492 L95.6248059,477.908203 L95.1365246,477.908203 L95.1365246,484.529297 L85.8787121,484.529297 L85.8787121,477.908203 L85.3904309,477.908203 L85.3904309,492 L85.8787121,492 Z M109.801976,492 L109.801976,491.541016 L102.223851,491.541016 L102.223851,484.988281 L109.450413,484.988281 L109.450413,484.539062 L102.223851,484.539062 L102.223851,478.367188 L109.801976,478.367188 L109.801976,477.908203 L101.73557,477.908203 L101.73557,492 L109.801976,492 Z M131.486394,492 L131.486394,491.541016 L123.918035,491.541016 L123.918035,477.908203 L123.429754,477.908203 L123.429754,492 L131.486394,492 Z M136.493642,492 L138.349111,487.107422 L144.901845,487.107422 L146.747549,492 L147.294424,492 L141.874502,477.908203 L141.376455,477.908203 L135.956533,492 L136.493642,492 Z M144.726064,486.658203 L138.524892,486.658203 L141.601064,478.582031 L141.649892,478.582031 L144.726064,486.658203 Z M165.619467,492.195312 C169.096029,492.195312 171.224936,490.027344 171.224936,486.492188 L171.224936,485.085938 L165.560873,485.085938 L165.560873,485.535156 L170.74642,485.535156 L170.74642,486.511719 C170.74642,489.753906 168.803061,491.736328 165.619467,491.736328 C162.30892,491.736328 160.033529,488.943359 160.033529,484.861328 C160.033529,480.837891 162.260092,478.171875 165.619467,478.171875 C168.109701,478.171875 170.101889,479.646484 170.648764,481.882812 L171.127279,481.882812 C170.609701,479.392578 168.392904,477.712891 165.619467,477.712891 C161.976889,477.712891 159.545248,480.574219 159.545248,484.861328 C159.545248,489.207031 162.025717,492.195312 165.619467,492.195312 Z M175.997809,492 L177.853277,487.107422 L184.406012,487.107422 L186.251715,492 L186.79859,492 L181.378668,477.908203 L180.880621,477.908203 L175.460699,492 L175.997809,492 Z M184.230231,486.658203 L178.029059,486.658203 L181.105231,478.582031 L181.154059,478.582031 L184.230231,486.658203 Z M192.38201,492 L192.38201,485.847656 L196.249198,485.847656 C196.44451,485.847656 196.727713,485.837891 196.893729,485.828125 L200.565604,492 L201.13201,492 L197.401541,485.75 C199.530448,485.378906 200.790213,483.933594 200.790213,481.882812 C200.790213,479.412109 199.071463,477.908203 196.258963,477.908203 L191.893729,477.908203 L191.893729,492 L192.38201,492 Z M196.249198,485.398438 L192.38201,485.398438 L192.38201,478.367188 L196.249198,478.367188 C198.768729,478.367188 200.301932,479.666016 200.301932,481.882812 C200.301932,484.060547 198.768729,485.398438 196.249198,485.398438 Z M206.080664,492 L207.936133,487.107422 L214.488868,487.107422 L216.334571,492 L216.881446,492 L211.461524,477.908203 L210.963477,477.908203 L205.543555,492 L206.080664,492 Z M214.313086,486.658203 L208.111914,486.658203 L211.188086,478.582031 L211.236914,478.582031 L214.313086,486.658203 Z M222.464866,492 L222.464866,478.728516 L222.503928,478.728516 L231.947288,492 L232.396506,492 L232.396506,477.908203 L231.908225,477.908203 L231.908225,491.072266 L231.869163,491.072266 L222.513694,477.908203 L221.976585,477.908203 L221.976585,492 L222.464866,492 Z M242.989692,492 L242.989692,478.367188 L248.067817,478.367188 L248.067817,477.908203 L237.423286,477.908203 L237.423286,478.367188 L242.501411,478.367188 L242.501411,492 L242.989692,492 Z M250.575065,492 L252.430534,487.107422 L258.983268,487.107422 L260.828971,492 L261.375846,492 L255.955925,477.908203 L255.457878,477.908203 L250.037956,492 L250.575065,492 Z M258.807487,486.658203 L252.606315,486.658203 L255.682487,478.582031 L255.731315,478.582031 L258.807487,486.658203 Z M268.785438,485.476562 C271.031532,485.476562 272.79911,483.699219 272.79911,481.462891 C272.79911,479.226562 271.031532,477.458984 268.785438,477.458984 C266.54911,477.458984 264.771767,479.226562 264.771767,481.462891 C264.771767,483.699219 266.54911,485.476562 268.785438,485.476562 Z M268.785438,485.046875 C266.783485,485.046875 265.201454,483.464844 265.201454,481.462891 C265.201454,479.451172 266.783485,477.878906 268.785438,477.878906 C270.797157,477.878906 272.359657,479.451172 272.359657,481.462891 C272.359657,483.464844 270.797157,485.046875 268.785438,485.046875 Z M267.662392,483.513672 L267.662392,481.775391 L268.834267,481.775391 L270.074501,483.513672 L270.513954,483.513672 L269.254188,481.746094 C269.937782,481.570312 270.29911,481.140625 270.29911,480.466797 C270.29911,479.666016 269.74247,479.138672 268.883095,479.138672 L267.291298,479.138672 L267.291298,483.513672 L267.662392,483.513672 Z M268.775673,481.433594 L267.662392,481.433594 L267.662392,479.5 L268.765907,479.5 C269.469032,479.5 269.89872,479.871094 269.89872,480.457031 C269.89872,481.091797 269.51786,481.433594 268.775673,481.433594 Z M287.178841,492 L287.178841,485.017578 L294.073372,485.017578 L294.073372,484.558594 L287.178841,484.558594 L287.178841,478.367188 L294.669075,478.367188 L294.669075,477.908203 L286.69056,477.908203 L286.69056,492 L287.178841,492 Z M298.436089,492 L300.291558,487.107422 L306.844292,487.107422 L308.689995,492 L309.23687,492 L303.816949,477.908203 L303.318902,477.908203 L297.89898,492 L298.436089,492 Z M306.668511,486.658203 L300.467339,486.658203 L303.543511,478.582031 L303.592339,478.582031 L306.668511,486.658203 Z M319.302712,492.195312 C322.242165,492.195312 324.527322,490.349609 324.751931,487.703125 L324.273415,487.703125 C324.03904,490.115234 321.910134,491.736328 319.302712,491.736328 C315.874978,491.736328 313.648415,489.080078 313.648415,484.851562 C313.648415,480.740234 315.835915,478.171875 319.302712,478.171875 C321.85154,478.171875 324.019509,480.046875 324.273415,482.439453 L324.751931,482.439453 C324.50779,479.792969 322.105447,477.712891 319.302712,477.712891 C315.533181,477.712891 313.160134,480.466797 313.160134,484.851562 C313.160134,489.333984 315.562478,492.195312 319.302712,492.195312 Z M334.153711,492 L334.153711,478.367188 L339.231836,478.367188 L339.231836,477.908203 L328.587304,477.908203 L328.587304,478.367188 L333.665429,478.367188 L333.665429,492 L334.153711,492 Z M348.809396,492.195312 C352.608224,492.195312 355.020334,489.392578 355.020334,484.949219 C355.020334,480.525391 352.598459,477.712891 348.809396,477.712891 C345.010568,477.712891 342.598459,480.525391 342.598459,484.949219 C342.598459,489.392578 345.000802,492.195312 348.809396,492.195312 Z M348.809396,491.736328 C345.313302,491.736328 343.08674,489.089844 343.08674,484.949219 C343.08674,480.808594 345.313302,478.171875 348.809396,478.171875 C352.295724,478.171875 354.532052,480.808594 354.532052,484.949219 C354.532052,489.089844 352.295724,491.736328 348.809396,491.736328 Z M361.023676,492 L361.023676,485.847656 L364.890863,485.847656 C365.086176,485.847656 365.369379,485.837891 365.535394,485.828125 L369.207269,492 L369.773676,492 L366.043207,485.75 C368.172113,485.378906 369.431879,483.933594 369.431879,481.882812 C369.431879,479.412109 367.713129,477.908203 364.900629,477.908203 L360.535394,477.908203 L360.535394,492 L361.023676,492 Z M364.890863,485.398438 L361.023676,485.398438 L361.023676,478.367188 L364.890863,478.367188 C367.410394,478.367188 368.943598,479.666016 368.943598,481.882812 C368.943598,484.060547 367.410394,485.398438 364.890863,485.398438 Z M379.849283,492 L379.849283,485.837891 L384.995768,477.908203 L384.419596,477.908203 L379.624674,485.310547 L379.585611,485.310547 L374.780924,477.908203 L374.194986,477.908203 L379.361002,485.837891 L379.361002,492 L379.849283,492 Z M402.20753,492.195312 C405.059092,492.195312 406.992686,490.623047 406.992686,488.337891 C406.992686,486.462891 405.840342,485.496094 403.008311,484.822266 L401.543467,484.470703 C399.121592,483.894531 398.018076,482.996094 398.018076,481.384766 C398.018076,479.441406 399.834483,478.162109 402.031748,478.162109 C404.365733,478.162109 406.133311,479.490234 406.230967,481.238281 L406.719248,481.238281 C406.631358,479.246094 404.648936,477.712891 402.041514,477.712891 C399.580576,477.712891 397.529795,479.216797 397.529795,481.384766 C397.529795,483.210938 398.61378,484.255859 401.35792,484.910156 L402.83253,485.261719 C405.430186,485.876953 406.504405,486.736328 406.504405,488.357422 C406.504405,490.378906 404.756358,491.746094 402.217295,491.746094 C399.63917,491.746094 397.744639,490.310547 397.637217,488.279297 L397.148936,488.279297 C397.256358,490.564453 399.336436,492.195312 402.20753,492.195312 Z M416.62884,492 L416.62884,478.367188 L421.706965,478.367188 L421.706965,477.908203 L411.062434,477.908203 L411.062434,478.367188 L416.140559,478.367188 L416.140559,492 L416.62884,492 Z M431.284526,492.195312 C435.083354,492.195312 437.495463,489.392578 437.495463,484.949219 C437.495463,480.525391 435.073588,477.712891 431.284526,477.712891 C427.485698,477.712891 425.073588,480.525391 425.073588,484.949219 C425.073588,489.392578 427.475932,492.195312 431.284526,492.195312 Z M431.284526,491.736328 C427.788432,491.736328 425.56187,489.089844 425.56187,484.949219 C425.56187,480.808594 427.788432,478.171875 431.284526,478.171875 C434.770854,478.171875 437.007182,480.808594 437.007182,484.949219 C437.007182,489.089844 434.770854,491.736328 431.284526,491.736328 Z M443.498805,492 L443.498805,485.847656 L447.365993,485.847656 C447.561305,485.847656 447.844508,485.837891 448.010524,485.828125 L451.682399,492 L452.248805,492 L448.518337,485.75 C450.647243,485.378906 451.907008,483.933594 451.907008,481.882812 C451.907008,479.412109 450.188258,477.908203 447.375758,477.908203 L443.010524,477.908203 L443.010524,492 L443.498805,492 Z M447.365993,485.398438 L443.498805,485.398438 L443.498805,478.367188 L447.365993,478.367188 C449.885524,478.367188 451.418727,479.666016 451.418727,481.882812 C451.418727,484.060547 449.885524,485.398438 447.365993,485.398438 Z M465.742382,492 L465.742382,491.541016 L458.164257,491.541016 L458.164257,484.988281 L465.390819,484.988281 L465.390819,484.539062 L458.164257,484.539062 L458.164257,478.367188 L465.742382,478.367188 L465.742382,477.908203 L457.675975,477.908203 L457.675975,492 L465.742382,492 Z" id="THELAGARANTA®FACTORYSTORE" fill="#000000" fill-rule="nonzero"></path>
            <g id="logo_contrabean_ext-black" transform="translate(113.000000, 372.000000)" fill="#000000" fill-rule="nonzero">
                <path d="M223.635109,53.975 C224.935109,53.975 225.980109,54.27875 226.770109,54.88625 C227.560109,55.49375 228.095109,56.365 228.375109,57.5 L228.375109,57.5 L226.530109,57.7925 L226.388359,57.41645 C226.178359,56.93765 225.884359,56.54925 225.506359,56.25125 C225.033859,55.87875 224.447609,55.69 223.747609,55.685 C223.037609,55.675 222.440109,55.83 221.955109,56.15 C221.470109,56.47 221.106359,56.925 220.863859,57.515 C220.621359,58.105 220.497609,58.8 220.492609,59.6 C220.487609,60.4 220.608859,61.09375 220.856359,61.68125 C221.103859,62.26875 221.476359,62.7225 221.973859,63.0425 C222.471359,63.3625 223.082609,63.5225 223.807609,63.5225 C224.607609,63.5225 225.256359,63.28875 225.753859,62.82125 C226.251359,62.35375 226.570109,61.665 226.710109,60.755 L226.710109,60.755 L224.805109,60.755 L224.805109,59.3375 L228.630109,59.3375 L228.643234,59.5015625 L228.643234,59.5015625 L228.652609,59.67875 C228.657609,59.80125 228.660109,59.8975 228.660109,59.9675 C228.660109,60.9875 228.457609,61.895 228.052609,62.69 C227.647609,63.485 227.066359,64.10625 226.308859,64.55375 C225.551359,65.00125 224.660109,65.225 223.635109,65.225 C222.685109,65.225 221.827609,65.00375 221.062609,64.56125 C220.297609,64.11875 219.692609,63.4725 219.247609,62.6225 C218.802609,61.7725 218.580109,60.765 218.580109,59.6 C218.580109,58.445 218.797609,57.44375 219.232609,56.59625 C219.667609,55.74875 220.268859,55.1 221.036359,54.65 C221.803859,54.2 222.670109,53.975 223.635109,53.975 Z M296.48424,54.2 L299.88924,65 L298.02924,65 L297.28674,62.66 L293.02674,62.66 L292.29174,65 L290.43174,65 L293.83674,54.2 L296.48424,54.2 Z M288.325218,54.2 L288.325218,55.895 L284.830218,55.895 L284.830218,65 L283.022717,65 L283.022717,55.895 L279.527717,55.895 L279.527717,54.2 L288.325218,54.2 Z M269.531195,54.2 L274.541195,61.8125 L274.541195,54.2 L276.371195,54.2 L276.371195,65 L274.541195,65 L269.531195,57.3875 L269.531195,65 L267.701195,65 L267.701195,54.2 L269.531195,54.2 Z M260.989675,54.2 L264.394675,65 L262.534675,65 L261.792175,62.66 L257.532175,62.66 L256.797175,65 L254.937175,65 L258.342175,54.2 L260.989675,54.2 Z M248.293152,54.2 L248.608986,54.2066668 C248.810096,54.2155555 248.992319,54.2333333 249.155652,54.26 C250.065652,54.4 250.751902,54.77875 251.214402,55.39625 C251.676902,56.01375 251.908152,56.7875 251.908152,57.7175 C251.908152,58.4625 251.754402,59.1125 251.446902,59.6675 C251.139402,60.2225 250.685652,60.635 250.085652,60.905 L250.085652,60.905 L252.080652,65 L250.033152,65 L248.203152,61.2275 L245.638152,61.2275 L245.638152,65 L243.830652,65 L243.830652,54.2 L248.293152,54.2 Z M237.11913,54.2 L240.52413,65 L238.66413,65 L237.92163,62.66 L233.661631,62.66 L232.92663,65 L231.066631,65 L234.471631,54.2 L237.11913,54.2 Z M212.768587,54.2 L216.173587,65 L214.313587,65 L213.571087,62.66 L209.311087,62.66 L208.576087,65 L206.716087,65 L210.121087,54.2 L212.768587,54.2 Z M199.464565,54.2 L199.464565,63.305 L204.234565,63.305 L204.234565,65 L197.657065,65 L197.657065,54.2 L199.464565,54.2 Z M183.079022,54.2 L185.561522,58.505 L188.036522,54.2 L190.144022,54.2 L186.476522,60.575 L186.476522,65 L184.646522,65 L184.646522,60.575 L180.971522,54.2 L183.079022,54.2 Z M175.3325,54.2 L175.7339,54.21695 C176.2523,54.26215 176.7035,54.39775 177.0875,54.62375 C177.5675,54.90625 177.925,55.27375 178.16,55.72625 C178.395,56.17875 178.5125,56.66 178.5125,57.17 C178.5125,57.655 178.4175,58.08125 178.2275,58.44875 C178.0375,58.81625 177.7725,59.1025 177.4325,59.3075 C177.9375,59.5225 178.3275,59.85125 178.6025,60.29375 C178.8775,60.73625 179.015,61.235 179.015,61.79 C179.015,62.435 178.89125,62.99875 178.64375,63.48125 C178.39625,63.96375 178.02875,64.3375 177.54125,64.6025 C177.05375,64.8675 176.4625,65 175.7675,65 L175.7675,65 L171.05,65 L171.05,54.2 L175.3325,54.2 Z M175.595,60.2 L172.88,60.2 L172.88,63.2975 L175.5425,63.2975 C175.8575,63.2975 176.14,63.23375 176.39,63.10625 C176.64,62.97875 176.83625,62.7975 176.97875,62.5625 C177.12125,62.3275 177.1925,62.0525 177.1925,61.7375 C177.1925,61.4475 177.12875,61.185 177.00125,60.95 C176.87375,60.715 176.69,60.53125 176.45,60.39875 C176.21,60.26625 175.925,60.2 175.595,60.2 L175.595,60.2 Z M211.426087,55.9475 L209.843587,60.9725 L213.031087,60.9725 L211.426087,55.9475 Z M235.776631,55.9475 L234.19413,60.9725 L237.38163,60.9725 L235.776631,55.9475 Z M259.647175,55.9475 L258.064675,60.9725 L261.252175,60.9725 L259.647175,55.9475 Z M295.14174,55.9475 L293.55924,60.9725 L296.74674,60.9725 L295.14174,55.9475 Z M248.218152,55.895 L245.638152,55.895 L245.638152,59.54 L248.218152,59.54 C248.498152,59.54 248.725652,59.515 248.900652,59.465 C249.315652,59.36 249.616902,59.1425 249.804402,58.8125 C249.991902,58.4825 250.085652,58.1175 250.085652,57.7175 C250.085652,57.3175 249.991902,56.95125 249.804402,56.61875 C249.616902,56.28625 249.315652,56.0675 248.900652,55.9625 C248.720652,55.9175 248.493152,55.895 248.218152,55.895 L248.218152,55.895 Z M175.31,55.8875 L172.88,55.8875 L172.88,58.5125 L175.31,58.5125 C175.71,58.5125 176.0375,58.3975 176.2925,58.1675 C176.5475,57.9375 176.675,57.615 176.675,57.2 C176.675,56.815 176.5525,56.5 176.3075,56.255 C176.0625,56.01 175.73,55.8875 175.31,55.8875 L175.31,55.8875 Z M20.4125,0.64 C25.4725,0.64 29.7658333,1.98166667 33.2925,4.665 C36.6956483,7.23546297 38.8165817,10.8146013 39.655301,15.4024151 L39.79,16.2225 L29.9575,16.2225 L29.777159,15.6082954 C29.132462,13.6045076 28.052159,12.0363257 26.53625,10.90375 C24.86875,9.65791668 22.8275,9.035 20.4125,9.035 C17.1158333,9.035 14.57625,10.1658333 12.79375,12.4275 C11.01125,14.6891667 10.12,17.89 10.12,22.03 C10.12,26.17 11.01125,29.3708333 12.79375,31.6325 C14.57625,33.8941667 17.1158333,35.025 20.4125,35.025 C22.9425,35.025 25.0891667,34.2966667 26.8525,32.84 C28.468889,31.5047223 29.5376968,29.6862847 30.0589235,27.3846875 L30.1875,26.745 L39.905,26.745 L39.7891128,27.6156635 C39.054982,32.487073 37.0044445,36.2985185 33.6375,39.05 C30.0341667,41.9633332 25.6258332,43.42 20.4125,43.42 C14.3175,43.42 9.39166667,41.4841667 5.635,37.6125 C1.87833333,33.7408333 -1.07469589e-11,28.5466667 -1.07469589e-11,22.03 C-1.07469589e-11,15.4366667 1.84,10.2233333 5.52,6.39 C9.2,2.55666668 14.1641667,0.64 20.4125,0.64 Z M246.57,12.14 C255.134762,12.14 259.539497,15.0158449 259.784205,20.7675347 L259.795,21.2825 L259.795,37.0375 L259.80498,37.7004133 C259.864855,39.6392563 260.194172,41.129029 260.792935,42.1697315 L261.0025,42.5 L251.975,42.5 L251.790765,42.1080613 C251.448112,41.2960205 251.260357,40.315 251.2275,39.165 C249.234167,41.8483332 246.071667,43.19 241.74,43.19 C238.481667,43.19 235.865417,42.385 233.89125,40.775 C231.917083,39.165 230.93,36.9416667 230.93,34.105 C230.93,28.7575 234.563468,25.6944083 241.830405,24.9157251 L242.545,24.8475 L247.2025,24.445 L247.669014,24.386377 C249.926338,24.051709 251.055,23.09375 251.055,21.5125 C251.055,19.5191667 249.540833,18.5225 246.5125,18.5225 C244.6725,18.5225 243.37875,18.8004167 242.63125,19.35625 C241.966805,19.8503241 241.537093,20.715427 241.342114,21.9515586 L241.28,22.4325 L232.3675,22.4325 L232.421939,21.8686362 C233.170415,15.3828787 237.886435,12.14 246.57,12.14 Z M154.0775,12.14 C162.642262,12.14 167.046996,15.0158449 167.291704,20.7675347 L167.3025,21.2825 L167.3025,37.0375 L167.312479,37.7004133 C167.372355,39.6392563 167.701673,41.129029 168.300434,42.1697315 L168.51,42.5 L159.4825,42.5 L159.298265,42.1080613 C158.955612,41.2960205 158.767857,40.315 158.735,39.165 C156.741667,41.8483332 153.579167,43.19 149.2475,43.19 C145.989167,43.19 143.372917,42.385 141.39875,40.775 C139.424583,39.165 138.4375,36.9416667 138.4375,34.105 C138.4375,28.7575 142.070968,25.6944083 149.337905,24.9157251 L150.0525,24.8475 L154.71,24.445 L155.176514,24.386377 C157.433838,24.051709 158.5625,23.09375 158.5625,21.5125 C158.5625,19.5191667 157.048333,18.5225 154.02,18.5225 C152.18,18.5225 150.88625,18.8004167 150.13875,19.35625 C149.474305,19.8503241 149.044593,20.715427 148.849614,21.9515586 L148.7875,22.4325 L139.875,22.4325 L139.929439,21.8686362 C139.972209,21.4980215 140.027934,21.1379957 140.096614,20.788559 L140.125,20.65 L138.0625,20.65 L137.528591,20.659572 C132.807711,20.8318668 130.36297,23.3301427 130.194367,28.1543995 L130.185,28.7 L130.185,42.5 L121.215,42.5 L121.215,12.83 L129.955,12.83 L129.955,18.35 L130.143152,17.8413043 C131.582718,14.1937681 134.3375,12.37 138.4075,12.37 C138.543796,12.37 139.073837,12.4002881 139.997623,12.4608642 L140.3625,12.485 L140.36,19.7075 L140.493125,19.2875694 C142.106319,14.5225231 146.634445,12.14 154.0775,12.14 Z M55.69,12.14 C60.4433333,12.14 64.2191667,13.5391667 67.0175,16.3375 C69.8158332,19.1358333 71.215,22.9116667 71.215,27.665 C71.215,32.38 69.8158332,36.1366668 67.0175,38.935 C64.1808332,41.7716667 60.405,43.19 55.69,43.19 C50.975,43.19 47.1991668,41.7716667 44.3625,38.935 C41.5258333,36.0983332 40.1075,32.3416668 40.1075,27.665 C40.1075,22.95 41.5258333,19.1741667 44.3625,16.3375 C47.1608332,13.5391667 50.9366668,12.14 55.69,12.14 Z M178.4875,1.56 L178.4875,16.4525 L178.855182,15.9600692 C180.864962,13.4133564 183.655735,12.14 187.2275,12.14 C191.214167,12.14 194.376667,13.5391667 196.715,16.3375 C199.015,19.1358333 200.165,22.9116667 200.165,27.665 C200.165,32.4183333 199.015,36.1941667 196.715,38.9925 C194.376667,41.7908333 191.214167,43.19 187.2275,43.19 C183.498518,43.19 180.624347,41.8052083 178.604985,39.035625 L178.2575,38.5325 L178.2575,42.5 L169.5175,42.5 L169.5175,1.56 L178.4875,1.56 Z M215.72,12.14 C220.32,12.14 224.038333,13.6158333 226.875,16.5675 C229.472647,19.3816176 230.847872,23.0785957 231.000675,27.6584342 L231.015,28.5275 L231.015,30.31 L209.05,30.31 L209.155225,30.905125 C209.510575,32.647375 210.223,34.0015 211.2925,34.9675 C212.480833,36.0408332 213.995,36.5775 215.835,36.5775 C218.56625,36.5775 220.488906,35.6004492 221.602969,33.6463477 L221.815,33.2425 L230.325,33.2425 L230.138712,33.889815 C229.271713,36.6522597 227.627976,38.8610715 225.2075,40.51625 C222.600833,42.29875 219.476667,43.19 215.835,43.19 C211.235,43.19 207.516667,41.7716667 204.68,38.935 C201.843333,36.0983332 200.425,32.3416668 200.425,27.665 C200.425,22.95 201.824167,19.1933333 204.6225,16.395 C207.3825,13.5583333 211.081667,12.14 215.72,12.14 Z M114.2275,4.0325 L114.2275,12.83 L119.92,12.83 L119.92,19.385 L114.2275,19.385 L114.2275,33.2425 L114.23918,33.6014258 C114.293685,34.4043295 114.538958,34.9651043 114.975,35.28375 C115.411042,35.6023958 116.140573,35.781634 117.163594,35.8214648 L117.62,35.83 L119.92,35.83 L119.92,42.5 L119.441225,42.5610205 C118.446123,42.6736735 117.225714,42.73 115.78,42.73 C112.061667,42.73 109.378333,42.06875 107.73,40.74625 C106.191556,39.5119167 105.371052,37.5345983 105.268489,34.8142945 L105.2575,34.22 L105.2575,19.385 L100.83,19.385 L100.83,12.83 L105.2575,12.83 L105.2575,4.0325 L114.2275,4.0325 Z M90.7375,12.14 C93.8808333,12.14 96.3820833,13.08875 98.24125,14.98625 C99.9764723,16.75725 100.901924,19.2211463 101.017606,22.3779389 L101.03,23.065 L101.03,42.5 L92.06,42.5 L92.06,24.8475 L92.0501395,24.3979546 C91.912092,21.3243182 90.3245455,19.7875 87.2875,19.7875 C85.6775,19.7875 84.3358333,20.3241667 83.2625,21.3975 C82.2965,22.3635 81.7652,23.686575 81.6686,25.366725 L81.6525,25.94 L81.6525,42.5 L72.6825,42.5 L72.6825,12.83 L81.4225,12.83 L81.4225,17.0275 L81.813287,16.4995293 C84.0699845,13.5931765 87.0447223,12.14 90.7375,12.14 Z M280.1225,12.14 C283.265832,12.14 285.767083,13.08875 287.62625,14.98625 C289.361472,16.75725 290.286925,19.2211463 290.402605,22.3779389 L290.415,23.065 L290.415,42.5 L281.445,42.5 L281.445,24.8475 L281.43514,24.3979546 C281.297093,21.3243182 279.709545,19.7875 276.6725,19.7875 C275.0625,19.7875 273.720832,20.3241667 272.6475,21.3975 C271.6815,22.3635 271.1502,23.686575 271.0536,25.366725 L271.0375,25.94 L271.0375,42.5 L262.0675,42.5 L262.0675,12.83 L270.8075,12.83 L270.8075,17.0275 L271.198287,16.4995293 C273.454985,13.5931765 276.429722,12.14 280.1225,12.14 Z M302.5775,32.61 L302.5775,42.5 L292.4575,42.5 L292.4575,32.61 L302.5775,32.61 Z M251.055,28.6425 L250.859075,28.827068 C250.36216,29.2411625 249.586975,29.5393107 248.533518,29.7215123 L248.065,29.7925 L244.385,30.195 L243.892569,30.25827 C241.345856,30.6445212 240.0725,31.8117648 240.0725,33.76 C240.0725,34.795 240.455833,35.6191667 241.2225,36.2325 C241.989167,36.8458332 243.0625,37.1525 244.4425,37.1525 C246.474167,37.1525 248.084167,36.6254167 249.2725,35.57125 C250.352802,34.6129167 250.94206,33.2189773 251.040267,31.3894317 L251.055,30.8275 L251.055,28.6425 Z M158.5625,28.6425 L158.366574,28.827068 C157.869661,29.2411625 157.094475,29.5393107 156.041018,29.7215123 L155.5725,29.7925 L151.8925,30.195 L151.400069,30.25827 C148.853356,30.6445212 147.58,31.8117648 147.58,33.76 C147.58,34.795 147.963333,35.6191667 148.73,36.2325 C149.496667,36.8458332 150.57,37.1525 151.95,37.1525 C153.981667,37.1525 155.591667,36.6254167 156.78,35.57125 C157.860303,34.6129167 158.449559,33.2189773 158.547768,31.3894317 L158.5625,30.8275 L158.5625,28.6425 Z M184.755,19.3275 C180.5,19.3275 178.3725,22.1066667 178.3725,27.665 C178.3725,33.2233332 180.5,36.0025 184.755,36.0025 C186.748333,36.0025 188.300833,35.2645833 189.4125,33.78875 C190.524167,32.3129167 191.08,30.195 191.08,27.435 C191.08,22.03 188.971667,19.3275 184.755,19.3275 Z M55.69,19.3275 C53.5816667,19.3275 51.9716667,20.0366667 50.86,21.455 C49.7483333,22.8733333 49.1925,24.9433333 49.1925,27.665 C49.1925,30.3866668 49.7483333,32.4566667 50.86,33.875 C51.9716667,35.2933333 53.5816667,36.0025 55.69,36.0025 C57.76,36.0025 59.3508332,35.2933333 60.4625,33.875 C61.5741668,32.4566667 62.13,30.3866668 62.13,27.665 C62.13,24.9433333 61.5741668,22.8733333 60.4625,21.455 C59.3508332,20.0366667 57.76,19.3275 55.69,19.3275 Z M215.605,18.7525 C212.085,18.7525 209.950362,20.5411957 209.201087,24.118587 L209.1075,24.6175 L222.2175,24.6175 C221.910833,22.7775 221.1825,21.34 220.0325,20.305 C218.8825,19.27 217.406667,18.7525 215.605,18.7525 Z M306.9575,2 L310.1825,7.05 L313.4075,2 L315.12,2 L315.1325,11.375 L313.0825,11.375 L313.0825,5.9875 L310.77,9.7125 L309.595,9.7125 L307.2825,5.9875 L307.2825,11.375 L305.245,11.375 L305.245,2 L306.9575,2 Z M303.495,2 L303.495,3.925 L300.3825,3.925 L300.3825,11.375 L298.245,11.375 L298.245,3.925 L295.12,3.925 L295.12,2 L303.495,2 Z"></path>
            </g>
        </g>
    </g>
</svg>