<?xml version="1.0" encoding="UTF-8"?>
<svg width="540px" height="810px" viewBox="0 0 540 810" version="1.1" xmlns="http://www.w3.org/2000/svg" xmlns:xlink="http://www.w3.org/1999/xlink">
    <!-- Generator: Sketch 64 (93537) - https://sketch.com -->
    <title>introducing_contrabean</title>
    <desc>Created with Sketch.</desc>
    <g id="Page-1" stroke="none" stroke-width="1" fill="none" fill-rule="evenodd">
        <g id="introducing_contrabean">
            <rect id="Rectangle" stroke="#000000" stroke-width="0.5" fill="#FFFFFF" x="0.25" y="0.25" width="539.5" height="809.5"></rect>
            <g id="logo_contrabean_ext-black" transform="translate(113.000000, 372.000000)" fill="#000000" fill-rule="nonzero">
                <path d="M20.4125,0.64 C25.4725,0.64 29.7658333,1.98166667 33.2925,4.665 C36.6956483,7.23546297 38.8165817,10.8146013 39.655301,15.4024151 L39.79,16.2225 L29.9575,16.2225 L29.777159,15.6082954 C29.132462,13.6045076 28.052159,12.0363257 26.53625,10.90375 C24.86875,9.65791668 22.8275,9.035 20.4125,9.035 C17.1158333,9.035 14.57625,10.1658333 12.79375,12.4275 C11.01125,14.6891667 10.12,17.89 10.12,22.03 C10.12,26.17 11.01125,29.3708333 12.79375,31.6325 C14.57625,33.8941667 17.1158333,35.025 20.4125,35.025 C22.9425,35.025 25.0891667,34.2966667 26.8525,32.84 C28.468889,31.5047223 29.5376968,29.6862847 30.0589235,27.3846875 L30.1875,26.745 L39.905,26.745 L39.7891128,27.6156635 C39.054982,32.487073 37.0044445,36.2985185 33.6375,39.05 C30.0341667,41.9633332 25.6258332,43.42 20.4125,43.42 C14.3175,43.42 9.39166667,41.4841667 5.635,37.6125 C1.87833333,33.7408333 -1.07469589e-11,28.5466667 -1.07469589e-11,22.03 C-1.07469589e-11,15.4366667 1.84,10.2233333 5.52,6.39 C9.2,2.55666668 14.1641667,0.64 20.4125,0.64 Z M246.57,12.14 C255.134762,12.14 259.539497,15.0158449 259.784205,20.7675347 L259.795,21.2825 L259.795,37.0375 L259.80498,37.7004133 C259.864855,39.6392563 260.194172,41.129029 260.792935,42.1697315 L261.0025,42.5 L251.975,42.5 L251.790765,42.1080613 C251.448112,41.2960205 251.260357,40.315 251.2275,39.165 C249.234167,41.8483332 246.071667,43.19 241.74,43.19 C238.481667,43.19 235.865417,42.385 233.89125,40.775 C231.917083,39.165 230.93,36.9416667 230.93,34.105 C230.93,28.7575 234.563468,25.6944083 241.830405,24.9157251 L242.545,24.8475 L247.2025,24.445 L247.669014,24.386377 C249.926338,24.051709 251.055,23.09375 251.055,21.5125 C251.055,19.5191667 249.540833,18.5225 246.5125,18.5225 C244.6725,18.5225 243.37875,18.8004167 242.63125,19.35625 C241.966805,19.8503241 241.537093,20.715427 241.342114,21.9515586 L241.28,22.4325 L232.3675,22.4325 L232.421939,21.8686362 C233.170415,15.3828787 237.886435,12.14 246.57,12.14 Z M154.0775,12.14 C162.642262,12.14 167.046996,15.0158449 167.291704,20.7675347 L167.3025,21.2825 L167.3025,37.0375 L167.312479,37.7004133 C167.372355,39.6392563 167.701673,41.129029 168.300434,42.1697315 L168.51,42.5 L159.4825,42.5 L159.298265,42.1080613 C158.955612,41.2960205 158.767857,40.315 158.735,39.165 C156.741667,41.8483332 153.579167,43.19 149.2475,43.19 C145.989167,43.19 143.372917,42.385 141.39875,40.775 C139.424583,39.165 138.4375,36.9416667 138.4375,34.105 C138.4375,28.7575 142.070968,25.6944083 149.337905,24.9157251 L150.0525,24.8475 L154.71,24.445 L155.176514,24.386377 C157.433838,24.051709 158.5625,23.09375 158.5625,21.5125 C158.5625,19.5191667 157.048333,18.5225 154.02,18.5225 C152.18,18.5225 150.88625,18.8004167 150.13875,19.35625 C149.474305,19.8503241 149.044593,20.715427 148.849614,21.9515586 L148.7875,22.4325 L139.875,22.4325 L139.929439,21.8686362 C139.972209,21.4980215 140.027934,21.1379957 140.096614,20.788559 L140.125,20.65 L138.0625,20.65 L137.528591,20.659572 C132.807711,20.8318668 130.36297,23.3301427 130.194367,28.1543995 L130.185,28.7 L130.185,42.5 L121.215,42.5 L121.215,12.83 L129.955,12.83 L129.955,18.35 L130.143152,17.8413043 C131.582718,14.1937681 134.3375,12.37 138.4075,12.37 C138.543796,12.37 139.073837,12.4002881 139.997623,12.4608642 L140.3625,12.485 L140.36,19.7075 L140.493125,19.2875694 C142.106319,14.5225231 146.634445,12.14 154.0775,12.14 Z M55.69,12.14 C60.4433333,12.14 64.2191667,13.5391667 67.0175,16.3375 C69.8158332,19.1358333 71.215,22.9116667 71.215,27.665 C71.215,32.38 69.8158332,36.1366668 67.0175,38.935 C64.1808332,41.7716667 60.405,43.19 55.69,43.19 C50.975,43.19 47.1991668,41.7716667 44.3625,38.935 C41.5258333,36.0983332 40.1075,32.3416668 40.1075,27.665 C40.1075,22.95 41.5258333,19.1741667 44.3625,16.3375 C47.1608332,13.5391667 50.9366668,12.14 55.69,12.14 Z M178.4875,1.56 L178.4875,16.4525 L178.855182,15.9600692 C180.864962,13.4133564 183.655735,12.14 187.2275,12.14 C191.214167,12.14 194.376667,13.5391667 196.715,16.3375 C199.015,19.1358333 200.165,22.9116667 200.165,27.665 C200.165,32.4183333 199.015,36.1941667 196.715,38.9925 C194.376667,41.7908333 191.214167,43.19 187.2275,43.19 C183.498518,43.19 180.624347,41.8052083 178.604985,39.035625 L178.2575,38.5325 L178.2575,42.5 L169.5175,42.5 L169.5175,1.56 L178.4875,1.56 Z M215.72,12.14 C220.32,12.14 224.038333,13.6158333 226.875,16.5675 C229.472647,19.3816176 230.847872,23.0785957 231.000675,27.6584342 L231.015,28.5275 L231.015,30.31 L209.05,30.31 L209.155225,30.905125 C209.510575,32.647375 210.223,34.0015 211.2925,34.9675 C212.480833,36.0408332 213.995,36.5775 215.835,36.5775 C218.56625,36.5775 220.488906,35.6004492 221.602969,33.6463477 L221.815,33.2425 L230.325,33.2425 L230.138712,33.889815 C229.271713,36.6522597 227.627976,38.8610715 225.2075,40.51625 C222.600833,42.29875 219.476667,43.19 215.835,43.19 C211.235,43.19 207.516667,41.7716667 204.68,38.935 C201.843333,36.0983332 200.425,32.3416668 200.425,27.665 C200.425,22.95 201.824167,19.1933333 204.6225,16.395 C207.3825,13.5583333 211.081667,12.14 215.72,12.14 Z M114.2275,4.0325 L114.2275,12.83 L119.92,12.83 L119.92,19.385 L114.2275,19.385 L114.2275,33.2425 L114.23918,33.6014258 C114.293685,34.4043295 114.538958,34.9651043 114.975,35.28375 C115.411042,35.6023958 116.140573,35.781634 117.163594,35.8214648 L117.62,35.83 L119.92,35.83 L119.92,42.5 L119.441225,42.5610205 C118.446123,42.6736735 117.225714,42.73 115.78,42.73 C112.061667,42.73 109.378333,42.06875 107.73,40.74625 C106.191556,39.5119167 105.371052,37.5345983 105.268489,34.8142945 L105.2575,34.22 L105.2575,19.385 L100.83,19.385 L100.83,12.83 L105.2575,12.83 L105.2575,4.0325 L114.2275,4.0325 Z M90.7375,12.14 C93.8808333,12.14 96.3820833,13.08875 98.24125,14.98625 C99.9764723,16.75725 100.901924,19.2211463 101.017606,22.3779389 L101.03,23.065 L101.03,42.5 L92.06,42.5 L92.06,24.8475 L92.0501395,24.3979546 C91.912092,21.3243182 90.3245455,19.7875 87.2875,19.7875 C85.6775,19.7875 84.3358333,20.3241667 83.2625,21.3975 C82.2965,22.3635 81.7652,23.686575 81.6686,25.366725 L81.6525,25.94 L81.6525,42.5 L72.6825,42.5 L72.6825,12.83 L81.4225,12.83 L81.4225,17.0275 L81.813287,16.4995293 C84.0699845,13.5931765 87.0447223,12.14 90.7375,12.14 Z M280.1225,12.14 C283.265832,12.14 285.767083,13.08875 287.62625,14.98625 C289.361472,16.75725 290.286925,19.2211463 290.402605,22.3779389 L290.415,23.065 L290.415,42.5 L281.445,42.5 L281.445,24.8475 L281.43514,24.3979546 C281.297093,21.3243182 279.709545,19.7875 276.6725,19.7875 C275.0625,19.7875 273.720832,20.3241667 272.6475,21.3975 C271.6815,22.3635 271.1502,23.686575 271.0536,25.366725 L271.0375,25.94 L271.0375,42.5 L262.0675,42.5 L262.0675,12.83 L270.8075,12.83 L270.8075,17.0275 L271.198287,16.4995293 C273.454985,13.5931765 276.429722,12.14 280.1225,12.14 Z M302.5775,32.61 L302.5775,42.5 L292.4575,42.5 L292.4575,32.61 L302.5775,32.61 Z M251.055,28.6425 L250.859075,28.827068 C250.36216,29.2411625 249.586975,29.5393107 248.533518,29.7215123 L248.065,29.7925 L244.385,30.195 L243.892569,30.25827 C241.345856,30.6445212 240.0725,31.8117648 240.0725,33.76 C240.0725,34.795 240.455833,35.6191667 241.2225,36.2325 C241.989167,36.8458332 243.0625,37.1525 244.4425,37.1525 C246.474167,37.1525 248.084167,36.6254167 249.2725,35.57125 C250.352802,34.6129167 250.94206,33.2189773 251.040267,31.3894317 L251.055,30.8275 L251.055,28.6425 Z M158.5625,28.6425 L158.366574,28.827068 C157.869661,29.2411625 157.094475,29.5393107 156.041018,29.7215123 L155.5725,29.7925 L151.8925,30.195 L151.400069,30.25827 C148.853356,30.6445212 147.58,31.8117648 147.58,33.76 C147.58,34.795 147.963333,35.6191667 148.73,36.2325 C149.496667,36.8458332 150.57,37.1525 151.95,37.1525 C153.981667,37.1525 155.591667,36.6254167 156.78,35.57125 C157.860303,34.6129167 158.449559,33.2189773 158.547768,31.3894317 L158.5625,30.8275 L158.5625,28.6425 Z M184.755,19.3275 C180.5,19.3275 178.3725,22.1066667 178.3725,27.665 C178.3725,33.2233332 180.5,36.0025 184.755,36.0025 C186.748333,36.0025 188.300833,35.2645833 189.4125,33.78875 C190.524167,32.3129167 191.08,30.195 191.08,27.435 C191.08,22.03 188.971667,19.3275 184.755,19.3275 Z M55.69,19.3275 C53.5816667,19.3275 51.9716667,20.0366667 50.86,21.455 C49.7483333,22.8733333 49.1925,24.9433333 49.1925,27.665 C49.1925,30.3866668 49.7483333,32.4566667 50.86,33.875 C51.9716667,35.2933333 53.5816667,36.0025 55.69,36.0025 C57.76,36.0025 59.3508332,35.2933333 60.4625,33.875 C61.5741668,32.4566667 62.13,30.3866668 62.13,27.665 C62.13,24.9433333 61.5741668,22.8733333 60.4625,21.455 C59.3508332,20.0366667 57.76,19.3275 55.69,19.3275 Z M215.605,18.7525 C212.085,18.7525 209.950362,20.5411957 209.201087,24.118587 L209.1075,24.6175 L222.2175,24.6175 C221.910833,22.7775 221.1825,21.34 220.0325,20.305 C218.8825,19.27 217.406667,18.7525 215.605,18.7525 Z M306.9575,2 L310.1825,7.05 L313.4075,2 L315.12,2 L315.1325,11.375 L313.0825,11.375 L313.0825,5.9875 L310.77,9.7125 L309.595,9.7125 L307.2825,5.9875 L307.2825,11.375 L305.245,11.375 L305.245,2 L306.9575,2 Z M303.495,2 L303.495,3.925 L300.3825,3.925 L300.3825,11.375 L298.245,11.375 L298.245,3.925 L295.12,3.925 L295.12,2 L303.495,2 Z"></path>
            </g>
            <path d="M173.785895,505 L173.785895,499.101562 L179.840582,499.101562 L179.840582,497.255859 L173.785895,497.255859 L173.785895,492.792969 L180.397223,492.792969 L180.397223,490.908203 L171.598395,490.908203 L171.598395,505 L173.785895,505 Z M186.244315,505 L187.533377,501.191406 L192.904471,501.191406 L194.193533,505 L196.507987,505 L191.420096,490.908203 L189.056815,490.908203 L183.968924,505 L186.244315,505 Z M192.34783,499.433594 L188.090018,499.433594 L190.189627,493.251953 L190.248221,493.251953 L192.34783,499.433594 Z M207.198829,505.234375 C210.441016,505.234375 212.648047,503.525391 213.185157,500.615234 L211.007422,500.615234 C210.567969,502.314453 209.171485,503.320312 207.208594,503.320312 C204.620704,503.320312 202.980079,501.240234 202.980079,497.949219 C202.980079,494.6875 204.640235,492.587891 207.198829,492.587891 C209.112891,492.587891 210.616797,493.769531 211.007422,495.576172 L213.175391,495.576172 C212.804297,492.636719 210.392188,490.673828 207.198829,490.673828 C203.263282,490.673828 200.74375,493.486328 200.74375,497.949219 C200.74375,502.441406 203.24375,505.234375 207.198829,505.234375 Z M223.934592,505 L223.934592,492.792969 L228.241233,492.792969 L228.241233,490.908203 L217.430686,490.908203 L217.430686,492.792969 L221.747092,492.792969 L221.747092,505 L223.934592,505 Z M238.961372,505.234375 C243.014106,505.234375 245.562934,502.441406 245.562934,497.958984 C245.562934,493.476562 243.014106,490.673828 238.961372,490.673828 C234.898872,490.673828 232.359809,493.476562 232.359809,497.958984 C232.359809,502.441406 234.898872,505.234375 238.961372,505.234375 Z M238.961372,503.310547 C236.285591,503.310547 234.596137,501.240234 234.596137,497.958984 C234.596137,494.667969 236.285591,492.597656 238.961372,492.597656 C241.637153,492.597656 243.316841,494.667969 243.316841,497.958984 C243.316841,501.240234 241.637153,503.310547 238.961372,503.310547 Z M253.519401,505 L253.519401,499.580078 L256.527214,499.580078 L259.398307,505 L261.917839,505 L258.763542,499.238281 C260.482292,498.662109 261.497917,497.119141 261.497917,495.214844 C261.497917,492.587891 259.691276,490.908203 256.790886,490.908203 L251.331901,490.908203 L251.331901,505 L253.519401,505 Z M256.585807,497.8125 L253.519401,497.8125 L253.519401,492.744141 L256.527214,492.744141 C258.216667,492.744141 259.242057,493.701172 259.242057,495.273438 C259.242057,496.884766 258.275261,497.8125 256.585807,497.8125 Z M273.292274,505 L273.292274,499.228516 L278.262977,490.908203 L275.841102,490.908203 L272.247352,497.128906 L272.178993,497.128906 L268.585243,490.908203 L266.143837,490.908203 L271.104774,499.228516 L271.104774,505 L273.292274,505 Z M296.050911,505.234375 C299.332161,505.234375 301.422005,503.564453 301.422005,500.908203 C301.422005,498.857422 300.211068,497.675781 297.261849,497.050781 L295.71888,496.728516 C293.892708,496.337891 293.170052,495.654297 293.170052,494.628906 C293.170052,493.339844 294.380989,492.539062 296.03138,492.539062 C297.740364,492.539062 298.902474,493.408203 299.039193,494.824219 L301.158333,494.824219 C301.089974,492.363281 299.048958,490.673828 296.060677,490.673828 C293.06263,490.673828 290.943489,492.333984 290.943489,494.746094 C290.943489,496.777344 292.222786,498.085938 295.045052,498.681641 L296.578255,499.003906 C298.463021,499.414062 299.205208,500.097656 299.205208,501.191406 C299.205208,502.451172 297.925911,503.369141 296.138802,503.369141 C294.263802,503.369141 292.935677,502.529297 292.740364,501.132812 L290.611458,501.132812 C290.748177,503.642578 292.867318,505.234375 296.050911,505.234375 Z M312.757378,505 L312.757378,492.792969 L317.064019,492.792969 L317.064019,490.908203 L306.253472,490.908203 L306.253472,492.792969 L310.569878,492.792969 L310.569878,505 L312.757378,505 Z M327.784158,505.234375 C331.836892,505.234375 334.38572,502.441406 334.38572,497.958984 C334.38572,493.476562 331.836892,490.673828 327.784158,490.673828 C323.721658,490.673828 321.182595,493.476562 321.182595,497.958984 C321.182595,502.441406 323.721658,505.234375 327.784158,505.234375 Z M327.784158,503.310547 C325.108376,503.310547 323.418923,501.240234 323.418923,497.958984 C323.418923,494.667969 325.108376,492.597656 327.784158,492.597656 C330.459939,492.597656 332.139626,494.667969 332.139626,497.958984 C332.139626,501.240234 330.459939,503.310547 327.784158,503.310547 Z M342.342187,505 L342.342187,499.580078 L345.35,499.580078 L348.221093,505 L350.740625,505 L347.586328,499.238281 C349.305078,498.662109 350.320703,497.119141 350.320703,495.214844 C350.320703,492.587891 348.514062,490.908203 345.613671,490.908203 L340.154687,490.908203 L340.154687,505 L342.342187,505 Z M345.408593,497.8125 L342.342187,497.8125 L342.342187,492.744141 L345.35,492.744141 C347.039453,492.744141 348.064843,493.701172 348.064843,495.273438 C348.064843,496.884766 347.098046,497.8125 345.408593,497.8125 Z M365.064279,505 L365.064279,503.105469 L358.306467,503.105469 L358.306467,498.730469 L364.702951,498.730469 L364.702951,496.914062 L358.306467,496.914062 L358.306467,492.792969 L365.064279,492.792969 L365.064279,490.908203 L356.118967,490.908203 L356.118967,505 L365.064279,505 Z" id="FACTORYSTORE" fill="#000000" fill-rule="nonzero"></path>
            <path d="M171.951216,474 L171.951216,461.792969 L176.257857,461.792969 L176.257857,459.908203 L165.44731,459.908203 L165.44731,461.792969 L169.763716,461.792969 L169.763716,474 L171.951216,474 Z M183.911589,474 L183.911589,467.759766 L191.147917,467.759766 L191.147917,474 L193.335417,474 L193.335417,459.908203 L191.147917,459.908203 L191.147917,465.865234 L183.911589,465.865234 L183.911589,459.908203 L181.724089,459.908203 L181.724089,474 L183.911589,474 Z M208.557509,474 L208.557509,472.105469 L201.799697,472.105469 L201.799697,467.730469 L208.196181,467.730469 L208.196181,465.914062 L201.799697,465.914062 L201.799697,461.792969 L208.557509,461.792969 L208.557509,459.908203 L199.612197,459.908203 L199.612197,474 L208.557509,474 Z M230.984115,474 L230.984115,472.105469 L224.421615,472.105469 L224.421615,459.908203 L222.234115,459.908203 L222.234115,474 L230.984115,474 Z M237.778472,474 L239.067535,470.191406 L244.438629,470.191406 L245.727691,474 L248.042144,474 L242.954254,459.908203 L240.590972,459.908203 L235.503082,474 L237.778472,474 Z M243.881988,468.433594 L239.624176,468.433594 L241.723785,462.251953 L241.782379,462.251953 L243.881988,468.433594 Z M267.089844,474.234375 C270.908203,474.234375 273.164062,471.958984 273.164062,468.140625 L273.164062,466.705078 L267.363281,466.705078 L267.363281,468.472656 L271.005859,468.472656 L271.005859,468.716797 C270.976562,470.855469 269.394531,472.320312 267.109375,472.320312 C264.423828,472.320312 262.753906,470.240234 262.753906,466.871094 C262.753906,463.560547 264.375,461.587891 267.070312,461.587891 C268.90625,461.587891 270.283203,462.59375 270.810547,464.341797 L273.056641,464.341797 C272.568359,461.529297 270.195312,459.673828 267.060547,459.673828 C263.046875,459.673828 260.517578,462.447266 260.517578,466.890625 C260.517578,471.412109 263.056641,474.234375 267.089844,474.234375 Z M280.085373,474 L281.374436,470.191406 L286.745529,470.191406 L288.034592,474 L290.349045,474 L285.261154,459.908203 L282.897873,459.908203 L277.809983,474 L280.085373,474 Z M286.188889,468.433594 L281.931076,468.433594 L284.030686,462.251953 L284.089279,462.251953 L286.188889,468.433594 Z M297.778168,474 L297.778168,468.580078 L300.785981,468.580078 L303.657074,474 L306.176606,474 L303.022309,468.238281 C304.741059,467.662109 305.756684,466.119141 305.756684,464.214844 C305.756684,461.587891 303.950043,459.908203 301.049653,459.908203 L295.590668,459.908203 L295.590668,474 L297.778168,474 Z M300.844574,466.8125 L297.778168,466.8125 L297.778168,461.744141 L300.785981,461.744141 C302.475434,461.744141 303.500824,462.701172 303.500824,464.273438 C303.500824,465.884766 302.534028,466.8125 300.844574,466.8125 Z M312.785416,474 L314.074479,470.191406 L319.445573,470.191406 L320.734635,474 L323.049088,474 L317.961198,459.908203 L315.597916,459.908203 L310.510026,474 L312.785416,474 Z M318.888932,468.433594 L314.63112,468.433594 L316.730729,462.251953 L316.789323,462.251953 L318.888932,468.433594 Z M330.419618,474 L330.419618,463.619141 L330.507508,463.619141 L337.812196,474 L339.784852,474 L339.784852,459.908203 L337.655946,459.908203 L337.655946,470.298828 L337.577821,470.298828 L330.273133,459.908203 L328.290711,459.908203 L328.290711,474 L330.419618,474 Z M351.754991,474 L351.754991,461.792969 L356.061631,461.792969 L356.061631,459.908203 L345.251085,459.908203 L345.251085,461.792969 L349.567491,461.792969 L349.567491,474 L351.754991,474 Z M360.824739,474 L362.113802,470.191406 L367.484895,470.191406 L368.773958,474 L371.088411,474 L366.00052,459.908203 L363.637239,459.908203 L358.549348,474 L360.824739,474 Z M366.928255,468.433594 L362.670442,468.433594 L364.770052,462.251953 L364.828645,462.251953 L366.928255,468.433594 Z" id="THELAGARANTA" fill="#000000" fill-rule="nonzero"></path>
            <path d="M186.952323,324 L186.952323,309.908203 L184.764823,309.908203 L184.764823,324 L186.952323,324 Z M195.367774,324 L195.367774,313.619141 L195.455664,313.619141 L202.760352,324 L204.733008,324 L204.733008,309.908203 L202.604102,309.908203 L202.604102,320.298828 L202.525977,320.298828 L195.221289,309.908203 L193.238868,309.908203 L193.238868,324 L195.367774,324 Z M216.703147,324 L216.703147,311.792969 L221.009788,311.792969 L221.009788,309.908203 L210.199241,309.908203 L210.199241,311.792969 L214.515647,311.792969 L214.515647,324 L216.703147,324 Z M228.66352,324 L228.66352,318.580078 L231.671333,318.580078 L234.542426,324 L237.061958,324 L233.907661,318.238281 C235.626411,317.662109 236.642036,316.119141 236.642036,314.214844 C236.642036,311.587891 234.835395,309.908203 231.935005,309.908203 L226.47602,309.908203 L226.47602,324 L228.66352,324 Z M231.729926,316.8125 L228.66352,316.8125 L228.66352,311.744141 L231.671333,311.744141 C233.360786,311.744141 234.386176,312.701172 234.386176,314.273438 C234.386176,315.884766 233.41938,316.8125 231.729926,316.8125 Z M248.53405,324.234375 C252.586784,324.234375 255.135612,321.441406 255.135612,316.958984 C255.135612,312.476562 252.586784,309.673828 248.53405,309.673828 C244.47155,309.673828 241.932487,312.476562 241.932487,316.958984 C241.932487,321.441406 244.47155,324.234375 248.53405,324.234375 Z M248.53405,322.310547 C245.858268,322.310547 244.168815,320.240234 244.168815,316.958984 C244.168815,313.667969 245.858268,311.597656 248.53405,311.597656 C251.209831,311.597656 252.889518,313.667969 252.889518,316.958984 C252.889518,320.240234 251.209831,322.310547 248.53405,322.310547 Z M265.875282,324 C270.074501,324 272.545204,321.382812 272.545204,316.929688 C272.545204,312.486328 270.064735,309.908203 265.875282,309.908203 L260.904579,309.908203 L260.904579,324 L265.875282,324 Z M265.670204,322.105469 L263.092079,322.105469 L263.092079,311.792969 L265.670204,311.792969 C268.64872,311.792969 270.308876,313.628906 270.308876,316.949219 C270.308876,320.279297 268.658485,322.105469 265.670204,322.105469 Z M284.027062,324.234375 C287.562218,324.234375 289.730187,322.085938 289.730187,319.048828 L289.730187,309.908203 L287.552452,309.908203 L287.552452,318.863281 C287.552452,320.875 286.273155,322.291016 284.027062,322.291016 C281.780968,322.291016 280.511437,320.875 280.511437,318.863281 L280.511437,309.908203 L278.323937,309.908203 L278.323937,319.048828 C278.323937,322.085938 280.491905,324.234375 284.027062,324.234375 Z M301.963997,324.234375 C305.206185,324.234375 307.413216,322.525391 307.950325,319.615234 L305.772591,319.615234 C305.333138,321.314453 303.936654,322.320312 301.973763,322.320312 C299.385872,322.320312 297.745247,320.240234 297.745247,316.949219 C297.745247,313.6875 299.405404,311.587891 301.963997,311.587891 C303.87806,311.587891 305.381966,312.769531 305.772591,314.576172 L307.94056,314.576172 C307.569466,311.636719 305.157357,309.673828 301.963997,309.673828 C298.02845,309.673828 295.508919,312.486328 295.508919,316.949219 C295.508919,321.441406 298.008919,324.234375 301.963997,324.234375 Z M315.79937,324 L315.79937,309.908203 L313.61187,309.908203 L313.61187,324 L315.79937,324 Z M324.214822,324 L324.214822,313.619141 L324.302712,313.619141 L331.6074,324 L333.580056,324 L333.580056,309.908203 L331.45115,309.908203 L331.45115,320.298828 L331.373025,320.298828 L324.068337,309.908203 L322.085915,309.908203 L322.085915,324 L324.214822,324 Z M345.931054,324.234375 C349.749414,324.234375 352.005273,321.958984 352.005273,318.140625 L352.005273,316.705078 L346.204492,316.705078 L346.204492,318.472656 L349.84707,318.472656 L349.84707,318.716797 C349.817773,320.855469 348.235742,322.320312 345.950586,322.320312 C343.265039,322.320312 341.595117,320.240234 341.595117,316.871094 C341.595117,313.560547 343.216211,311.587891 345.911523,311.587891 C347.747461,311.587891 349.124414,312.59375 349.651757,314.341797 L351.897851,314.341797 C351.40957,311.529297 349.036523,309.673828 345.901757,309.673828 C341.888086,309.673828 339.358789,312.447266 339.358789,316.890625 C339.358789,321.412109 341.897851,324.234375 345.931054,324.234375 Z" id="INTRODUCING" fill="#000000" fill-rule="nonzero"></path>
            <path d="M378.155556,480.316406 C380.841102,480.316406 382.950477,478.246094 382.950477,475.609375 C382.950477,472.953125 380.841102,470.892578 378.155556,470.892578 C375.470009,470.892578 373.370399,472.962891 373.370399,475.609375 C373.370399,478.246094 375.479774,480.316406 378.155556,480.316406 Z M378.155556,479.242188 C376.134071,479.242188 374.542274,477.640625 374.542274,475.609375 C374.542274,473.558594 376.134071,471.976562 378.155556,471.976562 C380.196571,471.976562 381.768837,473.558594 381.768837,475.609375 C381.768837,477.640625 380.196571,479.242188 378.155556,479.242188 Z M377.354774,477.748047 L377.354774,476.146484 L378.077431,476.146484 L379.112587,477.748047 L380.382118,477.748047 L379.141884,476 C379.766884,475.882812 380.147743,475.375 380.147743,474.681641 C380.147743,473.880859 379.493446,473.304688 378.555946,473.304688 L376.329384,473.304688 L376.329384,477.748047 L377.354774,477.748047 Z M378.341102,475.375 L377.354774,475.375 L377.354774,474.154297 L378.370399,474.154297 C378.809852,474.154297 379.053993,474.349609 379.053993,474.740234 C379.053993,475.140625 378.790321,475.375 378.341102,475.375 Z" id="®" fill="#000000" fill-rule="nonzero"></path>
        </g>
    </g>
</svg>